<?xml version="1.0" encoding="UTF-8"?><svg id="Livello_2" xmlns="http://www.w3.org/2000/svg" xmlns:xlink="http://www.w3.org/1999/xlink" viewBox="0 0 750 500"><defs><clipPath id="clippath"><rect width="750" height="500" fill="none" stroke-width="0"/></clipPath><clipPath id="clippath-1"><rect x="331.13" y="387" width="250.72" height="113" fill="none" stroke-width="0"/></clipPath></defs><g id="OBJECTS"><rect width="750" height="500" fill="#6bc9d6" stroke-width="0"/><g clip-path="url(#clippath)"><path d="M442.8,232.9s19.37-44.14,73.62-27.25c0,0,7.82-17.87,28.77-12.64,0,0,4.29-37.15,47.15-32.39,0,0,1.43-20.48,23.81-20,0,0-7.62-35.72,28.58-39.05,0,0-1.43-17.62,13.81-19.05,0,0-5.18-33.31,32.35-34.08C690.9,48.45,680.35,9.43,710.64,0h39.36v232.9h-307.2Z" fill="#cae9ea" stroke-width="0"/><rect x="613.89" y="91.29" width="33.98" height="54.44" fill="#e6ceb9" stroke-width="0"/><rect x="638.47" y="96.79" width="4.22" height="7.55" fill="#247088" stroke-width="0"/><rect x="629.11" y="104.35" width="4.22" height="7.55" fill="#247088" stroke-width="0"/><rect x="619.89" y="98.81" width="4.22" height="7.55" fill="#247088" stroke-width="0"/><rect x="640.15" y="113.12" width="4.22" height="7.55" transform="translate(1284.52 233.79) rotate(-180)" fill="#247088" stroke-width="0"/><rect x="621.14" y="115.22" width="4.22" height="7.55" transform="translate(1246.5 237.99) rotate(-180)" fill="#247088" stroke-width="0"/><rect x="628.74" y="128.1" width="8.46" height="16.2" transform="translate(1265.94 272.4) rotate(-180)" fill="#247088" stroke-width="0"/><polygon points="647.87 83.11 617.79 83.11 609.61 91.29 647.87 91.29 647.87 83.11" fill="#d85539" stroke-width="0"/><rect x="647.87" y="71.41" width="33.98" height="54.44" fill="#ddb99e" stroke-width="0"/><rect x="672.46" y="76.91" width="4.22" height="7.55" fill="#247088" stroke-width="0"/><rect x="663.1" y="84.46" width="4.22" height="7.55" fill="#247088" stroke-width="0"/><rect x="653.87" y="78.92" width="4.22" height="7.55" fill="#247088" stroke-width="0"/><rect x="674.14" y="93.24" width="4.22" height="7.55" transform="translate(1352.49 194.02) rotate(-180)" fill="#247088" stroke-width="0"/><rect x="655.12" y="95.33" width="4.22" height="7.55" transform="translate(1314.46 198.22) rotate(-180)" fill="#247088" stroke-width="0"/><rect x="662.72" y="108.21" width="8.46" height="16.2" transform="translate(1333.9 232.63) rotate(-180)" fill="#247088" stroke-width="0"/><polygon points="681.86 63.22 651.78 63.22 643.59 71.41 681.86 71.41 681.86 63.22" fill="#d85539" stroke-width="0"/><rect x="642.08" y="100.07" width="22.98" height="36.81" fill="#e6ceb9" stroke-width="0"/><polygon points="642.08 100.07 642.08 136.89 636.72 136.89 636.72 94.54 642.08 100.07" fill="#ddb99e" stroke-width="0"/><rect x="658.7" y="103.79" width="2.85" height="5.11" fill="#247088" stroke-width="0"/><rect x="652.37" y="108.9" width="2.85" height="5.11" fill="#247088" stroke-width="0"/><rect x="646.14" y="105.16" width="2.85" height="5.11" fill="#247088" stroke-width="0"/><rect x="659.84" y="114.83" width="2.85" height="5.11" transform="translate(1322.53 234.77) rotate(-180)" fill="#247088" stroke-width="0"/><rect x="644.71" y="114.83" width="2.85" height="5.11" transform="translate(1292.27 234.77) rotate(-180)" fill="#247088" stroke-width="0"/><rect x="652.12" y="124.96" width="5.72" height="10.95" transform="translate(1309.96 260.88) rotate(-180)" fill="#247088" stroke-width="0"/><polygon points="636.72 94.54 659.52 94.54 665.06 100.07 642.08 100.07 636.72 94.54" fill="#d85539" stroke-width="0"/><rect x="687.21" y="63.26" width="22.98" height="36.81" fill="#ddb99e" stroke-width="0"/><polygon points="687.21 63.26 687.21 100.07 681.86 100.07 681.86 57.73 687.21 63.26" fill="#e6ceb9" stroke-width="0"/><rect x="703.84" y="66.98" width="2.85" height="5.11" fill="#247088" stroke-width="0"/><rect x="697.51" y="72.09" width="2.85" height="5.11" fill="#247088" stroke-width="0"/><rect x="691.27" y="68.34" width="2.85" height="5.11" fill="#247088" stroke-width="0"/><rect x="704.97" y="78.02" width="2.85" height="5.11" transform="translate(1412.8 161.15) rotate(-180)" fill="#247088" stroke-width="0"/><rect x="689.85" y="78.02" width="2.85" height="5.11" transform="translate(1382.55 161.15) rotate(-180)" fill="#247088" stroke-width="0"/><rect x="697.26" y="88.15" width="5.72" height="10.95" transform="translate(1400.23 187.25) rotate(-180)" fill="#247088" stroke-width="0"/><polygon points="681.86 57.73 704.66 57.73 710.19 63.26 687.21 63.26 681.86 57.73" fill="#d85539" stroke-width="0"/><rect x="540.43" y="176.79" width="4.22" height="7.55" fill="#247088" stroke-width="0"/><rect x="542.11" y="193.12" width="4.22" height="7.55" transform="translate(1088.44 393.79) rotate(-180)" fill="#247088" stroke-width="0"/><rect x="523.1" y="195.22" width="4.22" height="7.55" transform="translate(1050.41 397.99) rotate(-180)" fill="#247088" stroke-width="0"/><rect x="530.7" y="208.1" width="8.46" height="16.2" transform="translate(1069.85 432.4) rotate(-180)" fill="#247088" stroke-width="0"/><rect x="552.81" y="151.41" width="33.98" height="54.44" fill="#ddb99e" stroke-width="0"/><rect x="566.16" y="161.48" width="4.22" height="7.55" fill="#247088" stroke-width="0"/><rect x="557.53" y="156.37" width="4.22" height="7.55" fill="#247088" stroke-width="0"/><rect x="576.09" y="173.24" width="4.22" height="7.55" transform="translate(1156.4 354.02) rotate(-180)" fill="#247088" stroke-width="0"/><rect x="557.08" y="175.33" width="4.22" height="7.55" transform="translate(1118.38 358.22) rotate(-180)" fill="#247088" stroke-width="0"/><rect x="564.68" y="188.21" width="8.46" height="16.2" transform="translate(1137.82 392.63) rotate(-180)" fill="#247088" stroke-width="0"/><polygon points="586.79 143.22 556.71 143.22 548.53 151.41 586.79 151.41 586.79 143.22" fill="#d85539" stroke-width="0"/><rect x="544.04" y="180.07" width="22.98" height="36.81" fill="#e6ceb9" stroke-width="0"/><polygon points="544.04 180.07 544.04 216.89 538.68 216.89 538.68 174.54 544.04 180.07" fill="#ddb99e" stroke-width="0"/><rect x="560.66" y="183.79" width="2.85" height="5.11" fill="#247088" stroke-width="0"/><rect x="554.33" y="188.9" width="2.85" height="5.11" fill="#247088" stroke-width="0"/><rect x="548.09" y="185.16" width="2.85" height="5.11" fill="#247088" stroke-width="0"/><rect x="561.79" y="194.83" width="2.85" height="5.11" transform="translate(1126.44 394.77) rotate(-180)" fill="#247088" stroke-width="0"/><rect x="550.75" y="197.9" width="2.85" height="5.11" transform="translate(1104.36 400.9) rotate(-180)" fill="#247088" stroke-width="0"/><polygon points="538.68 174.54 561.48 174.54 567.02 180.07 544.04 180.07 538.68 174.54" fill="#d85539" stroke-width="0"/><rect x="589.55" y="117.86" width="24.59" height="39.39" fill="#ddb99e" stroke-width="0"/><polygon points="589.55 117.86 589.55 157.25 583.81 157.25 583.81 111.94 589.55 117.86" fill="#e6ceb9" stroke-width="0"/><rect x="607.33" y="121.84" width="3.05" height="5.46" fill="#247088" stroke-width="0"/><rect x="600.56" y="125.12" width="3.05" height="5.46" fill="#247088" stroke-width="0"/><rect x="593.89" y="121.38" width="3.05" height="5.46" fill="#247088" stroke-width="0"/><rect x="608.55" y="133.65" width="3.05" height="5.46" transform="translate(1220.15 272.76) rotate(-180)" fill="#247088" stroke-width="0"/><rect x="600.29" y="144.49" width="6.12" height="11.72" transform="translate(1206.7 300.69) rotate(-180)" fill="#247088" stroke-width="0"/><polygon points="583.81 111.94 608.21 111.94 614.13 117.86 589.55 117.86 583.81 111.94" fill="#d85539" stroke-width="0"/><path d="M750,0s-23.13,11.94-25.43,18.06-4.6,10.72-4.6,16.85,5.36,8.43,0,11.49-6.89,3.06-9.96,6.13-2.3-2.3-6.89,6.89-4.6,7.66-6.89,15.32-18.38,20.68-18.38,20.68c0,0-5.36,1.53-8.43,4.6s-19.15,14.55-19.91,21.45-7.66,22.98-7.66,22.98c0,0,0,15.62-6.89,17.62s-14.09,17.32-18.53,19.77-14.4,10.87-14.4,13.17-2.3,13.79-2.3,13.79c0,0-.77,3.83-4.6,6.89s-9.19,5.36-9.19,5.36l-18.38,23.74h182.45V0Z" fill="#a5473d" stroke-width="0"/><path d="M709.34,232.9s27.08,6.38,40.66,7.62v-70.71c-2.21-3-3.86-5.27-3.86-5.27l-3.44-5.46s-.68-6.47-.68-9.87-1.02-3.06-1.7-4.09c-.68-1.02-4.43-6.13-4.43-6.13l-3.74-4.43-10.55-10.55s.68,4.77,1.02,5.79c.34,1.02,3.74,7.15,4.43,8.17.68,1.02,3.4,5.79,3.4,7.49v26.55l.34,13.28s-3.06,8.17-8.51,14.98c-5.45,6.81,0,7.49,0,9.53s.34,6.47.34,8.85-2.04,5.45-2.04,5.45l-11.23,8.8Z" fill="#963a33" stroke-width="0"/><path d="M724.57,18.06c-2.3,6.13-4.6,10.72-4.6,16.85s5.36,8.43,0,11.49c-5.36,3.06-6.89,3.06-9.96,6.13-3.06,3.06-2.3-2.3-6.89,6.89-4.6,9.19-4.6,7.66-6.89,15.32-2.3,7.66-18.38,20.68-18.38,20.68,0,0-5.36,1.53-8.43,4.6-3.06,3.06-19.15,14.55-19.91,21.45-.77,6.89-7.66,22.98-7.66,22.98,0,0,0,15.62-6.89,17.62-6.89,2-14.09,17.32-18.53,19.77-4.45,2.45-14.4,10.87-14.4,13.17s-2.3,13.79-2.3,13.79c0,0-.77,3.83-4.6,6.89-3.83,3.06-9.19,5.36-9.19,5.36l-6.05,7.81c-.05,2.58-.08,4.05-.08,4.05h121.28l-2.55-14.93-.77-1.53s-1.28-5.87-2.3-8.17c-1.02-2.3-4.85-2.81-5.87-4.34l-1.79-7.91.77-4.85s7.15-8.17,9.7-10.98c2.55-2.81.26-2.3.26-2.3l-9.19-6.89s1.02-1.79,4.85-8.43c3.83-6.64-.77-3.57-.77-3.57l-5.62-10.98-7.15-19.4s-4.34-4.09-4.85-5.36c-.51-1.28,1.28-4.85,1.28-4.85,0,0,3.32-5.11,6.13-6.13,2.81-1.02,6.38.51,16.34-1.79,9.96-2.3.51-1.79.51-1.79,0,0,0-5.11-1.02-6.89-1.02-1.79,0,0-1.28-1.28-1.28-1.28,5.87-24.51,5.87-24.51l2.3-2.81s4.85-2.3,6.89-4.34,1.02-5.36,1.02-5.36l5.36-4.85,8.94-1.53,10.47-5.87-5.36-6.64v-3.32l2.55-6.64-1.53-2.55-3.06-3.32-.51-3.32,7.91-4.6,2.04-9.19,1.28-2.04c1.28-2.04,8.06-9.64,8.06-9.64,0,0-23.13,11.94-25.43,18.06Z" fill="#963a33" stroke-width="0"/><rect y="232.9" width="750" height="267.1" fill="#4db4c7" stroke-width="0"/><path d="M212.64,427.85s101.81,17.87,89.21-2.55,27.57,9.66,18.38-7.77-23.49-45,56.51-22.19,33.02.68,46.64-4.77,62.3,38.81,53.79,12.6,107.23,31.32,101.11,10.89,114.88,35.91,114.88,35.91l-88.72,40.63s-139.64,7.6-197.41,2.68-97.64,1-109.15-5.36-90.32-21.34-90.32-21.34l5.09-38.72Z" fill="#6bc9d6" stroke-width="0"/><path d="M421.77,293.58s29.87,4.82,12,12.61-45.28,7.28-33.36,10.85.85,6.89-12.51,9.96-23.83,12-3.15,12.26-7.03,14.3-52.15,16.85-51.25,10.47-34.4,11.74,15.57,13.71-20.17,16.43-66.89,9.36-42.89,14.21-7.83,13.53-38.13,13.19-74.46,59.97-74.46,59.97c0,0-117.34-.77-113.95-23.31s13.11-52.66,13.11-52.66l94.45-58.21,70.31-31.93,66.99-10.45s87.55-9.26,90.78-8.2,77.53,6.7,77.53,6.7Z" fill="#6bc9d6" stroke-width="0"/><path d="M750,319.77c-23.68-9.19-77.43-9.53-62.45,0,14.98,9.53-5.45,4.09-52.77,19.74-47.32,15.66-29.62,27.57-14.48,40.17,15.14,12.6,9.71,48.34-42.38,52.43-52.09,4.09-74.89-21.45-86.36-18.38-11.46,3.06,24.74,25.53-72.96.34-97.7-25.19-91.57,4.43-78.3,24.66,13.28,20.23,3.4,17.55-65.36,4.28-68.77-13.28-65.36,7.15-53.11,23.15s-101.45-1.36-123.23,8.85c-21.79,10.21-4.43,25-4.43,25h655.81v-180.23Z" fill="#fff" stroke-width="0"/><path d="M240.49,467.87c-23.67-22.04,47.86-8.18,97.5-6.5,49.64,1.68-63.82-68.16,105.48-34.48,169.29,33.68,209.18-3.55,186.13-54.07-23.05-50.52,120.75-36.17,120.75-36.17v163.35H109.85c-36-36.68,155.16-9.29,130.63-32.13Z" fill="#e6ceb9" stroke-width="0"/><path d="M629.25,373.12c23.05,50.52-16.84,87.75-186.13,54.07-169.29-33.68-55.84,36.16-105.48,34.48-49.64-1.68-121.16-15.54-97.5,6.5,24.52,22.84-166.63-4.85-130.63,31.83h8.85s-17.19-14.62,20.94-13.09c38.13,1.53,119.66,8,111.49-10.38-8.17-18.38,18.04-19.57,57.87-6.3,39.83,13.28,64.09,10.98,55.66-12.51s-1.53-39.83,29.36-31.15,125.36,48.43,201.28,32.77c75.91-15.66,54.81-56.51,45.62-80-9.19-23.49-1.06-40.17,109.43-31.32v-11.07s-143.79-14.35-120.75,36.17Z" fill="#ddbba2" stroke-width="0"/><path d="M329.66,232.9s-19.37-44.14-73.62-27.25c0,0-7.82-17.87-28.77-12.64,0,0-4.29-37.15-47.15-32.39,0,0-1.43-20.48-23.81-20,0,0,7.62-35.72-28.58-39.05,0,0,1.43-17.62-13.81-19.05,0,0,5.18-33.31-32.35-34.08,0,0,10.55-39.02-19.74-48.45H0v232.9h329.66Z" fill="#cae9ea" stroke-width="0"/><path d="M454.18,314.27s-45.94,7.62-38.03,11.7,13.23,4.39-.92,9.09-11.85,14.49,21.6,17.64-5.87,8.77,8.17,13.75,65.87,2.16,48.51,9.57,27.32,9.22,57.7,3.2,20.43-15.46,7.4-19.54,40.34-13.28,27.57-20.68,19.13-7.97,34.12-8.94,34.05-1.85,25.62-6.67,35.23-4.49,22.72-9.12,47.41-.56,38.13-10.39,22.38-.12,10.89-12.12-62.78-15.95-62.78-15.95l-200.72,38.46Z" fill="#6bc9d6" stroke-width="0"/><path d="M453.43,318.75s-28.6,3.91-21.45,7.23,10.21,7.4-2.55,10.98,1.47,6.64,22.44,10.47,30.07,5.19,22.24,8.77-3.4,6.98,12.77,6.81,30.81,2.38,23.15,5.11,14.47,3.23,25.19,2.55,3.06-7.32-2.72-9.19-25.03-8.68-6.3-9.7,19.89-4.83,11.31-6.93-11.5-4.31,6.64-5.16,39.08,1.19,29.54-2.89-9.7-8.51,6.47-9.36,15.66-4.6,6.47-6.98,3.3-4.94,17.82-4.94,48.05.89,41.58-3.9,1.53-5.12,24-3.76,30.68-.09,23.14-3.96-2.54-8.12,10.39-7.44,9.19-7.32-27.4-9.7-222.72,32-222.72,32Z" fill="#38a3bd" stroke-width="0"/><path d="M423.38,299.96s9.11,3.8-12.59,6.23-20.17,7.79-20.17,7.79c0,0,4.6,5.11-6.64,5.62s-17.11,2.24-15.06,3.8-3.83,6.16-9.96,6.67-7.91,3.62,0,5,3.32,3.68-12.26,5.72-39.06-.51-33.7-4.09-.77-8.95-5.62-8.56-15.83-1.46-10.21-4.75-4.84-5.58-15.31-1.88,10.48,4.72,0,8.04-31.92,9.19-21.2,9.7,1.53,7.15-19.15,10.47-16.85,8.94-11.49,8.68,11.95,3.33-4.24,8.05-20.53,14.16,4.24,14.16-13.45,13.71-65.36,19.15-27.06,11.23-16.34,11.23,5.87,3.79-7.79,6.74-25.19,14.62-11.77,12.87,10.21,8.38-15.75,10.72-54.05,14.47-35.67,16.07-1.18,10.28-17.95,12.83-35.15,8.76-16.77,8.47-.51,9.92-12.26,14,10.72,7.3,10.72,7.3H0v-100.02l101.47-65.31,144.88-30.78,62.83-35.33h35.06l39.49,13.3,39.66,18.1Z" fill="#38a3bd" stroke-width="0"/><polygon points="408.7 280.82 408.7 269.25 392.23 247.44 390.45 229.64 367.31 212.28 334.82 174.9 319.69 176.68 296.1 171.34 276.96 176.68 276.96 200.71 262.72 197.6 251.6 203.83 255.16 235.43 250.71 255.01 255.16 282.16 233.57 301.29 294.77 301.29 313.01 306.19 332.59 306.19 335.71 312.42 355.74 312.42 371.31 299.96 423.38 299.96 423.38 289.28 408.7 280.82" fill="#a5473d" stroke-width="0"/><path d="M335.61,194.66l5.39,14.13,19.57,13.68,8.17,20.87,8,9.02s-.17,9.7,0,10.21,18.72,11.23,18.72,11.23l-1.53,16.02,6.47,10.13h-29.09l-15.58,12.46h-20.03l-3.12-6.23h-9.3s4.26-6.23,4.26-6.23l.92-20.02,10.14-7.49,3.06-9.53-3.06-9.38,1.7-13.6-3.06-11.74,6.98-7.15-8.63-6.98v-19.4Z" fill="#963a33" stroke-width="0"/><polygon points="408.7 269.25 392.23 247.44 390.45 229.64 367.31 212.28 379.64 229.64 385.77 232.96 380.32 246.4 393.6 257.38 392.74 264.79 401.09 268.7 405.51 280.79 404.83 286.88 423.38 289.28 408.7 280.82 408.7 269.25" fill="#ba5c4d" stroke-width="0"/><path d="M319.69,176.68l-23.59-5.34-19.14,5.34,6.16,5.81,12.77,1.02,13.79,15.06-3.32,16.34s20.17,27.12,20.17,26.96-11.23-28.24-11.49-29.26,7.91-14.3,7.91-14.3l-1.28-7.15,13.14-16.27-15.13,1.78Z" fill="#ba5c4d" stroke-width="0"/><polygon points="262.72 197.6 251.6 203.83 266.79 202.15 284.15 218.23 291.04 247.34 291.04 219.51 276.96 200.71 262.72 197.6" fill="#ba5c4d" stroke-width="0"/><polygon points="367.31 212.28 334.82 174.9 350.02 205.21 367.31 212.28" fill="#ba5c4d" stroke-width="0"/><polygon points="332.59 306.19 335.71 312.42 338.62 281.86 332.59 306.19" fill="#a5473d" stroke-width="0"/><polygon points="356.83 264.11 344.23 241.88 350.36 261.01 351.06 275.17 355.74 298.83 354.45 305.3 355.74 312.42 371.31 299.96 356.83 273.98 356.83 264.11" fill="#a5473d" stroke-width="0"/><polygon points="292.32 281.86 274.96 250 281.86 284.02 275.98 301.29 294.77 301.29 292.32 281.86" fill="#963a33" stroke-width="0"/><polygon points="382.02 273.81 380.32 285.72 383.55 299.96 395.47 299.96 384.57 285.89 382.02 273.81" fill="#a5473d" stroke-width="0"/><polygon points="233.57 301.29 275.98 301.29 259.13 292.87 263.55 279.77 250.71 255.01 255.16 282.16 233.57 301.29" fill="#963a33" stroke-width="0"/><polygon points="314.45 289.3 309 297.64 308.32 273.47 303.04 290.83 294.77 301.29 313.01 306.19 314.45 289.3" fill="#963a33" stroke-width="0"/><polygon points="0 0 14.83 23.14 24.33 35.01 46.28 54 60.53 78.33 83.67 94.35 101.47 110.37 109.78 126.98 120 139.43 123.42 146.57 133.51 170.3 154.28 204.13 171.49 222.52 184.54 232.01 189.29 243.88 202.35 251 210.06 255.16 210.06 270.58 219.55 281.86 233.79 278.3 245.07 293.73 259.31 297.29 271.77 305 281.86 313.31 271.77 318.06 259.31 318.06 245.66 325.18 232.01 325.18 227.86 334.67 215.4 340.5 212.43 352.47 189.29 360.78 164.96 360.78 145.38 369.09 145.38 379.77 128.77 388.08 127.58 397.57 88.41 417.74 67.65 417.74 58.15 426.65 49.84 435.55 35.01 435.55 16.61 442.07 0 459.28 0 0" fill="#a5473d" stroke-width="0"/><polygon points="16.61 442.07 35.01 435.55 49.84 435.55 58.15 426.65 67.65 417.74 88.41 417.74 112.75 405.21 69.17 337.47 69.17 314.26 59.39 281.86 69.17 244.98 64.57 199.28 47.72 194.8 41.09 184.64 41.09 165.38 15.55 136.79 0 62.74 0 459.28 16.61 442.07" fill="#963a33" stroke-width="0"/><polygon points="219.55 281.86 210.06 270.58 210.06 255.16 202.35 251 189.29 243.88 184.54 232.01 171.49 222.52 154.28 204.13 133.51 170.3 123.42 146.57 120 139.43 109.78 126.98 101.47 110.37 83.67 94.35 77.69 90.21 61.51 107 86.36 118.57 92.49 132.19 108.15 141.72 122.11 171.05 136.4 206.25 151.38 225.3 170.11 229.48 178.96 234.23 185.77 250 201.09 257.38 201.09 274.15 219.55 281.86" fill="#ba5c4d" stroke-width="0"/><polygon points="24.06 57.98 37.34 91.34 61.51 107 101.47 110.37 83.67 94.35 60.53 78.33 46.28 54 24.33 35.01 14.83 23.14 0 0 12.83 47.43 24.06 57.98" fill="#ba5c4d" stroke-width="0"/><polygon points="16.61 442.07 0 434.33 0 459.28 16.61 442.07" fill="#a5473d" stroke-width="0"/><polygon points="128.77 388.08 97.26 343.09 112.75 405.21 127.58 397.57 128.77 388.08" fill="#ba5c4d" stroke-width="0"/><polygon points="59.47 151.33 78.87 157.62 109.51 215.46 109.51 294.06 136.57 316.2 146.28 335.07 164.96 360.78 189.29 360.78 165.68 316.94 128.4 290.49 124.32 228.66 81.94 142.91 61.51 137.81 30.36 112.29 59.47 151.33" fill="#ba5c4d" stroke-width="0"/><polygon points="145.38 369.09 101.47 305.54 128.77 388.08 145.38 379.77 145.38 369.09" fill="#ba5c4d" stroke-width="0"/><polygon points="35.01 435.55 49.84 435.55 15.55 337.47 35.01 435.55" fill="#a5473d" stroke-width="0"/><polygon points="30.36 279.77 67.65 417.74 88.41 417.74 30.36 279.77" fill="#a5473d" stroke-width="0"/><polygon points="212.43 352.47 196.32 332.7 193.94 312.42 173.51 290.49 157.51 261.01 186.79 290.83 202.79 302.4 215.4 340.5 212.43 352.47" fill="#ba5c4d" stroke-width="0"/><polygon points="232.01 325.18 219.55 308.36 227.86 334.67 232.01 325.18" fill="#ba5c4d" stroke-width="0"/><polygon points="259.31 318.06 235.13 297.64 271.77 318.06 259.31 318.06" fill="#ba5c4d" stroke-width="0"/><polygon points="544.14 225 593.39 136.59 612.97 132.88 630.77 137.78 651.24 135.55 673.94 147.12 681.06 171.15 673.94 192.52 681.06 213.43 681.06 256.16 685.51 264.17 681.06 280.63 681.06 297.32 620.31 297.32 613.75 303.89 551.11 303.89 544.14 225" fill="#a5473d" stroke-width="0"/><polyline points="681.06 297.32 671.47 289.28 671.47 270.57 664.83 247.6 664.83 237.13 662.79 218.38 656.91 240.7 659.47 246.06 656.91 260.36 661.51 272.87 656.91 297.32 649 297.32 650.28 285.13 646.7 267.26 642.11 241.98 640.57 271.85 642.62 281.81 639.04 289.87 631.38 287.94 631.38 265.72 620.31 297.32 681.06 297.32" fill="#963a33" stroke-width="0"/><polygon points="623.21 149.81 614.82 189.38 634.45 151.85 644.4 147.77 648.74 156.19 640.57 184.28 650.53 213.38 647.98 186.62 663.3 164.62 674.53 171.34 666.62 196.28 674.53 218.38 672.74 241.88 681.06 256.16 681.06 213.43 673.94 192.52 681.06 171.15 673.94 147.12 651.24 135.55 630.77 137.78 612.97 132.88 593.39 136.59 613.77 136.59 623.21 149.81" fill="#ba5c4d" stroke-width="0"/><polygon points="544.14 225 551.11 303.89 613.75 303.89 620.31 297.32 613.77 268.28 610.19 296.36 604.57 292.53 601.77 281.55 593.39 273.81 592.57 250.78 584.4 266.49 572.15 254.74 567.55 244.79 569.34 234.06 562.45 221.55 593.39 136.59 544.14 225" fill="#963a33" stroke-width="0"/><polygon points="451.86 328.14 455.42 306.78 472.34 289.87 483.02 241.88 498.45 229.64 507.64 227.56 510.02 210.36 530.78 186.62 544.43 186.62 553.63 232.9 563.72 300.85 563.72 323.4 529.3 323.4 523.07 328.14 451.86 328.14" fill="#a5473d" stroke-width="0"/><polygon points="545.26 286.88 537.26 263.77 538.96 293.21 543.04 316.87 540.15 323.4 556.66 323.4 545.26 295.26 545.26 286.88" fill="#963a33" stroke-width="0"/><polygon points="552.57 262.91 546.41 250.78 554.79 287.94 563.72 300.85 560.94 282.14 552.57 262.91" fill="#963a33" stroke-width="0"/><polygon points="524.49 295.09 523.07 328.14 529.3 323.4 524.49 295.09" fill="#963a33" stroke-width="0"/><polygon points="531.3 230.74 515.98 250.78 499.64 261.38 497.6 275.94 481.77 284.87 478.45 306.19 451.86 328.14 523.07 328.14 512.91 317.04 515.47 297.14 509.6 289.87 517.51 273.47 517.77 262.91 525.94 253.54 531.3 230.74" fill="#963a33" stroke-width="0"/><polygon points="506.96 328.14 503.89 320.79 505.43 306.66 503.89 289.28 502.19 307.51 497.09 328.14 483.13 328.14 485.85 321.81 489.94 306.66 473.09 328.14 506.96 328.14" fill="#a5473d" stroke-width="0"/><polygon points="544.43 186.62 530.78 186.62 510.02 210.36 507.64 227.56 498.45 229.64 483.02 241.88 472.34 289.87 488.66 250.78 497.09 245.3 507.79 247.34 503.21 239.94 517 235.34 524.15 226.15 513.43 219.51 520.32 208.02 536.02 209.43 524.53 202.4 530.28 191.43 544.43 186.62" fill="#ba5c4d" stroke-width="0"/><text transform="translate(291.56 68.92)" fill="#fff" font-family="LibreBodoniRoman-Bold, &apos;LibreBodoniRoman Bold&apos;" font-size="51.63" font-variation-settings="&apos;" font-weight="700"><tspan x="0" y="0" letter-spacing=".14em">C</tspan><tspan x="37.38" y="0" letter-spacing=".14em">APRI</tspan></text><text transform="translate(285.84 95.62)" fill="#fff" font-family="LibreBodoniRoman-Bold, &apos;LibreBodoniRoman Bold&apos;" font-size="15" font-variation-settings="&apos;" font-weight="700"><tspan x="0" y="0" letter-spacing="2.32em">I</tspan><tspan x="38.38" y="0" letter-spacing="2.25em">T</tspan><tspan x="79.52" y="0" letter-spacing="2.32em">A</tspan><tspan x="123.5" y="0" letter-spacing="2.24em">L</tspan><tspan x="164.11" y="0" letter-spacing="2.32em">Y</tspan></text><path d="M182.7,382.4s43.48-4.06,36.85,20.68,10.47,27.16,23.49,25.79c18.98-2,30.57,5.85,29.23,24-1.34,18.15,11.74,6.98,34.24,11.65,22.5,4.67,9.16,30.35,32.79,20.25,23.63-10.11,22.54,15.23,22.54,15.23h-178.93l-.21-117.6Z" fill="#63643a" stroke-width="0"/><path d="M50.82,448.34s1.5-14.03,19.03-9.6,7.96-19.06,28.32-14.81,9.81-12.61,24.36-12.61v37.02H50.82Z" fill="#63643a" stroke-width="0"/><path d="M82.84,448.34s.83-7.76,10.53-5.31c9.71,2.45,4.41-10.55,15.68-8.2,11.27,2.36,5.43-6.98,13.49-6.98v20.49h-39.7Z" fill="#51512c" stroke-width="0"/><path d="M182.7,411.51s32.72-3.05,27.73,15.56,7.88,20.44,17.68,19.4c14.28-1.5,23.01,4.4,22,18.06-1.01,13.66,8.83,5.25,25.76,8.77s6.89,22.84,24.68,15.24c17.78-7.6,16.96,11.46,16.96,11.46h-134.65l-.16-88.49Z" fill="#51512c" stroke-width="0"/><rect x="0" y="304.64" width="122.54" height="14.98" transform="translate(122.54 624.26) rotate(-180)" fill="#e6ceb9" stroke-width="0"/><rect x="0" y="314.26" width="122.54" height="5.36" fill="#cc946e" stroke-width="0"/><rect x=".36" y="448.34" width="199.26" height="14.98" transform="translate(199.97 911.67) rotate(-180)" fill="#e6ceb9" stroke-width="0"/><rect x=".36" y="448.34" width="199.26" height="3.25" transform="translate(199.97 899.94) rotate(-180)" fill="#cc946e" stroke-width="0"/><rect x=".36" y="463.32" width="199.26" height="36.68" transform="translate(199.97 963.32) rotate(-180)" fill="#cc946e" stroke-width="0"/><rect x=".36" y="457.96" width="199.26" height="5.36" fill="#b5764b" stroke-width="0"/><rect x="199.61" y="463.32" width="49.13" height="14.98" transform="translate(448.36 941.63) rotate(-180)" fill="#e6ceb9" stroke-width="0"/><rect x="199.61" y="463.32" width="49.13" height="3.25" transform="translate(448.36 929.9) rotate(-180)" fill="#cc946e" stroke-width="0"/><rect x="199.61" y="478.3" width="49.13" height="21.7" transform="translate(448.36 978.3) rotate(-180)" fill="#cc946e" stroke-width="0"/><rect x="199.61" y="478.3" width="4.88" height="21.7" transform="translate(404.1 978.3) rotate(-180)" fill="#b5764b" stroke-width="0"/><rect x="199.61" y="472.94" width="49.13" height="5.36" fill="#b5764b" stroke-width="0"/><rect x="248.74" y="478.3" width="49.13" height="14.98" transform="translate(546.62 971.58) rotate(-180)" fill="#e6ceb9" stroke-width="0"/><rect x="248.74" y="478.3" width="49.13" height="3.25" transform="translate(546.62 959.86) rotate(-180)" fill="#cc946e" stroke-width="0"/><rect x="248.74" y="493.28" width="49.13" height="6.72" transform="translate(546.62 993.28) rotate(-180)" fill="#cc946e" stroke-width="0"/><rect x="248.74" y="493.28" width="4.7" height="6.72" transform="translate(502.19 993.28) rotate(-180)" fill="#b5764b" stroke-width="0"/><rect x="248.74" y="487.92" width="49.13" height="5.36" fill="#b5764b" stroke-width="0"/><rect x="75.16" y="326.63" width="34.49" height="7.01" fill="#cc946e" stroke-width="0"/><path d="M80.88,333.63s5.89,17.28,2.14,36.35-11.6,35.76-2.14,64.35h11.53v-100.7h-11.53Z" fill="#d8b59c" stroke-width="0"/><path d="M103.93,333.63s-5.89,17.28-2.14,36.35,11.6,35.76,2.14,64.35h-11.53v-100.7h11.53Z" fill="#e6ceb9" stroke-width="0"/><rect x="71.29" y="319.62" width="42.23" height="7.01" fill="#b5764b" stroke-width="0"/><rect x="75.16" y="434.33" width="34.49" height="7.01" transform="translate(184.82 875.67) rotate(180)" fill="#cc946e" stroke-width="0"/><rect x="71.29" y="441.34" width="42.23" height="7.01" transform="translate(184.82 889.68) rotate(-180)" fill="#e6ceb9" stroke-width="0"/><rect x="12.46" y="326.63" width="34.49" height="7.01" fill="#cc946e" stroke-width="0"/><path d="M18.18,333.63s5.89,17.28,2.14,36.35-11.6,35.76-2.14,64.35h11.53v-100.7h-11.53Z" fill="#d8b59c" stroke-width="0"/><path d="M41.23,333.63s-5.89,17.28-2.14,36.35,11.6,35.76,2.14,64.35h-11.53v-100.7h11.53Z" fill="#e6ceb9" stroke-width="0"/><rect x="8.59" y="319.62" width="42.23" height="7.01" fill="#b5764b" stroke-width="0"/><rect x="12.46" y="434.33" width="34.49" height="7.01" transform="translate(59.41 875.67) rotate(180)" fill="#cc946e" stroke-width="0"/><rect x="8.59" y="441.34" width="42.23" height="7.01" transform="translate(59.41 889.68) rotate(-180)" fill="#e6ceb9" stroke-width="0"/><rect x="122.54" y="295.09" width="77.08" height="153.26" transform="translate(322.15 743.43) rotate(-180)" fill="#d8b59c" stroke-width="0"/><rect x="161.07" y="295.09" width="38.54" height="153.26" transform="translate(360.69 743.43) rotate(-180)" fill="#e6ceb9" stroke-width="0"/><rect x="122.54" y="295.09" width="77.08" height="3.25" transform="translate(322.15 593.42) rotate(-180)" fill="#cc946e" stroke-width="0"/><rect x="136.19" y="0" width="49.78" height="295.09" transform="translate(322.15 295.09) rotate(-180)" fill="#d8b59c" stroke-width="0"/><rect x="168.55" y="0" width="17.41" height="295.09" transform="translate(354.51 295.09) rotate(-180)" fill="#e6ceb9" stroke-width="0"/><path d="M693.16,261.01s-3.62,3.76-3.04,8.68c.58,4.92-4.2,6.95-2.32,11,1.88,4.05-4.34,5.65-1.45,10.71s-4.05,11.29-1.45,17.08c2.61,5.79-3.22,8.4-.6,13.32s-5.92,10.42-1.72,18.53c4.2,8.11-3.81,12.3-1.18,18.09s-7.21,12.59-2.87,19.11c4.34,6.51-3.89,12.11-1.12,17.13s-4.7,11.97-.58,17.56-5.73,12.16-2.45,19.69c3.28,7.53-4.65,16.02-.68,22.58,3.96,6.56-5.47,8.49-1.14,15.83,4.33,7.33-6.67,16.79-6.67,30.11h27.26v-239.41Z" fill="#63643a" stroke-width="0"/><path d="M693.16,261.01s3.62,3.76,3.04,8.68,4.2,6.95,2.32,11,4.34,5.65,1.45,10.71,4.05,11.29,1.45,17.08c-2.61,5.79,3.22,8.4.6,13.32s5.92,10.42,1.72,18.53,3.81,12.3,1.18,18.09,7.21,12.59,2.87,19.11c-4.34,6.51,3.89,12.11,1.12,17.13s4.7,11.97.58,17.56,5.73,12.16,2.45,19.69c-3.28,7.53,4.65,16.02.68,22.58-3.96,6.56,5.47,8.49,1.14,15.83-4.33,7.33,6.67,16.79,6.67,30.11h-27.26v-239.41Z" fill="#51512c" stroke-width="0"/><path d="M556.66,332.11s-2.54,2.65-2.14,6.11-2.95,4.88-1.63,7.73-3.05,3.97-1.02,7.53c2.04,3.56-2.85,7.94-1.02,12.01s-2.26,5.9-.42,9.36-4.16,7.33-1.21,13.03c2.95,5.7-2.68,8.65-.83,12.72s-5.07,8.85-2.02,13.43-2.73,8.51-.79,12.04-3.3,8.41-.41,12.35-4.03,8.55-1.72,13.84-3.27,11.26-.48,15.88-3.84,5.97-.8,11.13c3.04,5.16-4.69,11.8-4.69,21.17h19.17v-168.32Z" fill="#63643a" stroke-width="0"/><path d="M556.66,332.11s2.54,2.65,2.14,6.11,2.95,4.88,1.63,7.73,3.05,3.97,1.02,7.53,2.85,7.94,1.02,12.01c-1.83,4.07,2.26,5.9.42,9.36s4.16,7.33,1.21,13.03,2.68,8.65.83,12.72,5.07,8.85,2.02,13.43c-3.05,4.58,2.73,8.51.79,12.04s3.3,8.41.41,12.35,4.03,8.55,1.72,13.84c-2.31,5.29,3.27,11.26.48,15.88s3.84,5.97.8,11.13,4.69,11.8,4.69,21.17h-19.17v-168.32Z" fill="#51512c" stroke-width="0"/><path d="M750,157.62s-5.18,5.39-4.35,12.44-6.01,9.95-3.32,15.75-6.22,8.08-2.07,15.34-5.8,16.17-2.07,24.46-4.61,12.02-.85,19.07c3.76,7.05-8.47,14.92-2.46,26.53s-5.46,17.62-1.69,25.91-10.33,18.03-4.11,27.36-5.56,17.34-1.61,24.53-6.72,17.13-.83,25.15c5.89,8.01-8.2,17.41-3.5,28.19s-6.65,22.94-.98,32.33-7.83,12.16-1.63,22.66-9.55,24.04-9.55,43.11h39.03V157.62Z" fill="#63643a" stroke-width="0"/><path d="M621.26,204.98s-4.47,4.64-3.75,10.72c.71,6.07-5.18,8.57-2.86,13.58s-5.36,6.97-1.79,13.22-5,13.93-1.79,21.08-3.97,10.36-.74,16.43-7.3,12.86-2.12,22.86-4.7,15.18-1.46,22.33-8.9,15.54-3.54,23.58-4.79,14.94-1.39,21.14-5.8,14.77-.72,21.67-7.07,15-3.02,24.29c4.05,9.29-5.73,19.77-.84,27.87s-6.75,10.48-1.4,19.53-8.23,20.72-8.23,37.15h33.64V204.98Z" fill="#63643a" stroke-width="0"/><path d="M621.26,204.98s4.47,4.64,3.75,10.72c-.71,6.07,5.18,8.57,2.86,13.58-2.32,5,5.36,6.97,1.79,13.22s5,13.93,1.79,21.08,3.97,10.36.74,16.43c-3.24,6.07,7.3,12.86,2.12,22.86-5.18,10,4.7,15.18,1.46,22.33-3.24,7.14,8.9,15.54,3.54,23.58s4.79,14.94,1.39,21.14c-3.41,6.19,5.8,14.77.72,21.67-5.08,6.91,7.07,15,3.02,24.29-4.05,9.29,5.73,19.77.84,27.87-4.89,8.1,6.75,10.48,1.4,19.53-5.34,9.05,8.23,20.72,8.23,37.15h-33.64V204.98Z" fill="#51512c" stroke-width="0"/><g clip-path="url(#clippath-1)"><ellipse cx="440.62" cy="472.37" rx="3.1" ry="1.63" fill="#ddbba2" stroke-width="0"/><rect x="444.98" y="421.53" width="2.2" height="51.7" transform="translate(105.74 -84.88) rotate(12.32)" fill="#ea3847" stroke-width="0"/><path d="M451.6,422.13c-26.37-5.76-39.8,9.49-39.8,9.49l72.02,15.73s-5.86-19.46-32.22-25.22Z" fill="#ea3847" stroke-width="0"/><path d="M451.6,422.13c-17.38-3.8-27.53,12.17-27.53,12.17l47.48,10.37s-2.57-18.74-19.95-22.54Z" fill="#fff" stroke-width="0"/><path d="M451.6,422.13c-7.52-1.64-14.07,15.11-14.07,15.11l20.55,4.49s1.04-17.95-6.49-19.6Z" fill="#f25a6c" stroke-width="0"/><polygon points="358.77 436.92 390.43 475.22 426.69 458.62 390.37 429.02 358.77 436.92" fill="#ddbba2" stroke-width="0"/><polygon points="360.13 433.69 391.79 471.99 428.04 455.39 391.73 425.79 360.13 433.69" fill="#ea9b18" stroke-width="0"/><polygon points="369.61 431.32 402.59 467.04 406.62 465.2 372.18 430.68 369.61 431.32" fill="#edc64a" stroke-width="0"/><polygon points="381.85 428.26 415.28 461.23 419.42 459.34 384.59 427.57 381.85 428.26" fill="#edc64a" stroke-width="0"/><polygon points="448.35 477.93 489.09 527.22 535.76 505.86 489.02 467.76 448.35 477.93" fill="#ddbba2" stroke-width="0"/><polygon points="450.09 473.76 490.84 523.06 537.5 501.7 490.76 463.6 450.09 473.76" fill="#4db4c7" stroke-width="0"/><polygon points="462.3 470.71 504.74 516.69 509.93 514.32 465.6 469.89 462.3 470.71" fill="#edc64a" stroke-width="0"/><polygon points="478.05 466.77 521.08 509.21 526.4 506.78 481.58 465.89 478.05 466.77" fill="#edc64a" stroke-width="0"/><polygon points="379.49 490.57 420.24 539.86 466.9 518.5 420.16 480.4 379.49 490.57" fill="#ddbba2" stroke-width="0"/><polygon points="381.23 486.41 421.98 535.7 468.65 514.34 421.91 476.24 381.23 486.41" fill="#f25a6c" stroke-width="0"/><polygon points="393.44 483.36 435.88 529.34 441.07 526.96 396.74 482.53 393.44 483.36" fill="#edc64a" stroke-width="0"/><polygon points="409.19 479.42 452.22 521.86 457.54 519.43 412.72 478.54 409.19 479.42" fill="#edc64a" stroke-width="0"/><ellipse cx="517.92" cy="473.32" rx="6.61" ry="3.21" fill="#ddbba2" stroke-width="0"/><path d="M512.23,467.71v4.34c0,1.53,2.55,2.76,5.69,2.76s5.69-1.24,5.69-2.76v-4.34h-11.38Z" fill="#fff" stroke-width="0"/><ellipse cx="517.92" cy="467.71" rx="5.69" ry="2.76" fill="#fff" stroke-width="0"/><ellipse cx="517.92" cy="467.71" rx="4.54" ry="2.2" fill="#ea3847" stroke-width="0"/><ellipse cx="462.3" cy="461.51" rx="6.61" ry="3.21" fill="#ddbba2" stroke-width="0"/><path d="M456.61,455.9v4.34c0,1.53,2.55,2.76,5.69,2.76s5.69-1.24,5.69-2.76v-4.34h-11.38Z" fill="#fff" stroke-width="0"/><ellipse cx="462.3" cy="455.9" rx="5.69" ry="2.76" fill="#fff" stroke-width="0"/><ellipse cx="462.3" cy="455.9" rx="4.54" ry="2.2" fill="#edc64a" stroke-width="0"/></g></g><circle class= "sun" cx="417.43" cy="167.48" r="36.09" fill="#edc64a" stroke-width="0"/><circle class= "sun" cx="417.43" cy="167.48" r="30.91" fill="#ea9b18" stroke-width="0"/></g></svg>