<?xml version="1.0" encoding="UTF-8"?><svg xmlns="http://www.w3.org/2000/svg" xmlns:xlink="http://www.w3.org/1999/xlink" viewBox="0 0 294.76 85.67"><defs><linearGradient id="Degradado_sin_nombre_72" x1="205.15" y1="11.84" x2="193.85" y2="55.41" gradientUnits="userSpaceOnUse"><stop offset="0" stop-color="#33b1e7"/><stop offset=".48" stop-color="#3ad2db"/><stop offset="1" stop-color="#43fbcd"/></linearGradient><linearGradient id="Degradado_sin_nombre_34" x1="25.07" y1="21.26" x2="35.65" y2="42.94" gradientUnits="userSpaceOnUse"><stop offset="0" stop-color="#5632bd"/><stop offset="1" stop-color="#d76ae3"/></linearGradient><linearGradient id="Degradado_sin_nombre_34-2" x1="26.21" y1="42.29" x2="39.73" y2="83.89" xlink:href="#Degradado_sin_nombre_34"/><linearGradient id="Degradado_sin_nombre_80" x1="12.78" y1="46.98" x2="15.76" y2="64.82" gradientUnits="userSpaceOnUse"><stop offset="0" stop-color="#4c2851"/><stop offset="1" stop-color="#feddb8"/></linearGradient><linearGradient id="Degradado_sin_nombre_72-2" x1="79.38" y1="20.84" x2="101.07" y2="69.73" xlink:href="#Degradado_sin_nombre_72"/><linearGradient id="Degradado_sin_nombre_72-3" x1="158.61" y1="26.83" x2="179.72" y2="74.42" xlink:href="#Degradado_sin_nombre_72"/><linearGradient id="Degradado_sin_nombre_72-4" x1="173.03" y1="49.24" x2="196.55" y2="1.78" xlink:href="#Degradado_sin_nombre_72"/><linearGradient id="Sfumatura_senza_nome_6" x1="73.62" y1="85.12" x2="90.22" y2="32.61" gradientTransform="translate(170.38 -73.26) rotate(90)" gradientUnits="userSpaceOnUse"><stop offset="0" stop-color="#33b1e7"/><stop offset=".31" stop-color="#37c4e0"/><stop offset=".94" stop-color="#41f6ce"/><stop offset="1" stop-color="#43fbcd"/></linearGradient><linearGradient id="Sfumatura_senza_nome_7" x1="100.9" y1="53.24" x2="131.88" y2="60.89" gradientTransform="translate(170.38 -73.26) rotate(90)" gradientUnits="userSpaceOnUse"><stop offset="0" stop-color="#33b1e7"/><stop offset=".48" stop-color="#3ad2db"/><stop offset="1" stop-color="#43fbcd"/></linearGradient><linearGradient id="Degradado_sin_nombre_34-3" x1="-693.24" y1="21.26" x2="-682.65" y2="42.94" gradientTransform="translate(-423.55 85.69) rotate(-180)" xlink:href="#Degradado_sin_nombre_34"/><linearGradient id="Degradado_sin_nombre_34-4" x1="-692.1" y1="42.29" x2="-678.58" y2="83.89" gradientTransform="translate(-423.55 85.69) rotate(-180)" xlink:href="#Degradado_sin_nombre_34"/><linearGradient id="Degradado_sin_nombre_80-2" x1="-705.52" y1="46.98" x2="-702.55" y2="64.82" gradientTransform="translate(-423.55 85.69) rotate(-180)" xlink:href="#Degradado_sin_nombre_80"/></defs><g isolation="isolate"><g id="Livello_2"><g id="OBJECTS"><path d="M203.72,5.64c-4.96,3.58-8.82,8.68-10.83,14.77l-11.36,34.3-1.31,3.44.47,4.57,3.8,3.28,13.22-39.93c2.35-7.09,6.84-13.03,12.61-17.2,2.88-2.08,6.08-3.72,9.5-4.84L221.14,0C214.72,0,208.67,2.06,203.72,5.64Z" fill="url(#Degradado_sin_nombre_72)" stroke-width="0"/><path d="M60.34,11.15L0,33.42v18.85l60.34,22.27v-17.86l-39.04-13.83,39.04-13.83V11.15Z" fill="url(#Degradado_sin_nombre_34)" stroke-width="0"/><polygon points="60.34 56.68 60.34 74.54 26.37 62 0 52.27 21.3 42.85 26.04 44.53 60.34 56.68" fill="url(#Degradado_sin_nombre_34-2)" stroke-width="0"/><path d="M26.37,62L0,52.27l21.3-9.42,4.74,1.68c-1.98,6.18-1.43,12.14.33,17.47Z" fill="url(#Degradado_sin_nombre_80)" mix-blend-mode="multiply" opacity=".2" stroke-width="0"/><rect x="4.9" y="29.72" width="51.63" height="1" transform="translate(-8.77 12.98) rotate(-20.95)" fill="#fff" stroke-width="0"/><circle cx="54.82" cy="20.99" r="2.31" fill="#fff" stroke-width="0"/><circle cx="6.61" cy="39.44" r="2.31" fill="#fff" stroke-width="0"/><path d="M99.25,55.86l.1,23.59c.01,3.43-2.76,6.21-6.19,6.21h-10.49c-3.42,0-6.19-2.77-6.19-6.19V7.35C76.48,3.29,79.77,0,83.83,0h15.8l-.38,55.86Z" fill="url(#Degradado_sin_nombre_72-2)" stroke-width="0"/><path d="M181.53,54.71l-15.79-50.08c-1.72,9.86-8.8,17.9-18.12,20.99l17.61,54.31c1.11,3.42,4.29,5.73,7.88,5.73h8.01c5.77,0,9.78-5.76,7.76-11.17l-7.36-19.78Z" fill="url(#Degradado_sin_nombre_72-3)" stroke-width="0"/><path d="M203.72,5.64c-4.96,3.58-8.82,8.68-10.83,14.77l-11.36,34.3-9.96-31.57-5.83-18.5c-1.71,9.86-8.8,17.9-18.12,20.99l17.39,53.62c1.24,3.83,4.81,6.42,8.83,6.42h12.47c4.01,0,7.57-2.58,8.82-6.39L219.82,4.03l1.32-4.03c-6.42,0-12.47,2.06-17.42,5.64Z" fill="url(#Degradado_sin_nombre_72-4)" stroke-width="0"/><path d="M107.29,22.77l-29.81.13V6.97C77.48,3.12,80.6,0,84.45,0h78.7c0,12.76-10.39,23.08-23.15,22.99l-32.71-.22Z" fill="url(#Sfumatura_senza_nome_6)" stroke-width="0"/><path d="M111.26,46.07l-12.23.1v-18.53h35.15c0,10.33-4.26,18.68-9.5,18.61l-13.42-.18Z" fill="url(#Sfumatura_senza_nome_7)" stroke-width="0"/><path d="M234.42,74.54l60.34-22.27v-18.85l-60.34-22.27v17.86l39.04,13.83-39.04,13.83v17.87Z" fill="url(#Degradado_sin_nombre_34-3)" stroke-width="0"/><polygon points="234.42 29.01 234.42 11.15 268.39 23.69 294.76 33.42 273.46 42.84 268.72 41.16 234.42 29.01" fill="url(#Degradado_sin_nombre_34-4)" stroke-width="0"/><path d="M268.39,23.69l26.37,9.73-21.3,9.42-4.74-1.68c1.98-6.18,1.43-12.14-.33-17.47Z" fill="url(#Degradado_sin_nombre_80-2)" mix-blend-mode="multiply" opacity=".2" stroke-width="0"/><rect x="238.23" y="54.97" width="51.63" height="1" transform="translate(-2.38 98.07) rotate(-20.95)" fill="#fff" stroke-width="0"/><circle cx="239.93" cy="64.7" r="2.31" fill="#fff" stroke-width="0"/><circle cx="288.15" cy="46.25" r="2.31" fill="#fff" stroke-width="0"/></g></g></g></svg>