<?xml version="1.0" encoding="utf-8"?>
<!-- Generator: Adobe Illustrator 27.5.0, SVG Export Plug-In . SVG Version: 6.00 Build 0)  -->
<svg version="1.1" xmlns="http://www.w3.org/2000/svg" xmlns:xlink="http://www.w3.org/1999/xlink" x="0px" y="0px"
	 viewBox="0 0 750 500" style="enable-background:new 0 0 750 500;" xml:space="preserve">
<g id="BACKGROUND">
	<rect style="fill:#6BC9D6;" width="750" height="500"/>
</g>
<g id="OBJECTS">
	<g>
		<defs>
			<rect id="SVGID_1_" width="750" height="500"/>
		</defs>
		<clipPath id="SVGID_00000020374515343550401120000005337016882902007197_">
			<use xlink:href="#SVGID_1_"  style="overflow:visible;"/>
		</clipPath>
		<path style="clip-path:url(#SVGID_00000020374515343550401120000005337016882902007197_);fill:#CAE9EA;" d="M442.803,232.904
			c0,0,19.367-44.144,73.621-27.251c0,0,7.819-17.875,28.775-12.636c0,0,4.286-37.148,47.15-32.386c0,0,1.429-20.479,23.813-20.003
			c0,0-7.62-35.72,28.576-39.054c0,0-1.429-17.622,13.812-19.05c0,0-5.182-33.312,32.35-34.078c0,0-10.553-39.021,19.745-48.447
			L750,0v232.904H442.803z"/>
		<g style="clip-path:url(#SVGID_00000020374515343550401120000005337016882902007197_);">
			<g>
				<rect x="613.889" y="91.293" style="fill:#E6CEB9;" width="33.983" height="54.443"/>
				<g>
					<g>
						<g>
							<g>
								<rect x="638.474" y="96.794" style="fill:#247088;" width="4.215" height="7.552"/>
							</g>
							<g>
								<rect x="629.114" y="104.347" style="fill:#247088;" width="4.215" height="7.552"/>
							</g>
							<g>
								<rect x="619.891" y="98.809" style="fill:#247088;" width="4.215" height="7.552"/>
							</g>
						</g>
					</g>
					<g>
						
							<rect x="640.153" y="113.12" transform="matrix(-1 -4.487711e-11 4.487711e-11 -1 1284.5215 233.7918)" style="fill:#247088;" width="4.215" height="7.552"/>
						
							<rect x="621.14" y="115.216" transform="matrix(-1 -4.509294e-11 4.509294e-11 -1 1246.4963 237.9852)" style="fill:#247088;" width="4.215" height="7.552"/>
					</g>
					
						<rect x="628.741" y="128.098" transform="matrix(-1 -4.484825e-11 4.484825e-11 -1 1265.9379 272.3961)" style="fill:#247088;" width="8.457" height="16.2"/>
				</g>
				<polygon style="fill:#D85539;" points="647.873,83.109 617.792,83.109 609.609,91.293 647.873,91.293 				"/>
			</g>
			<g>
				<rect x="647.873" y="71.408" style="fill:#DDB99E;" width="33.983" height="54.443"/>
				<g>
					<g>
						<g>
							<g>
								<rect x="672.458" y="76.91" style="fill:#247088;" width="4.215" height="7.552"/>
							</g>
							<g>
								<rect x="663.098" y="84.463" style="fill:#247088;" width="4.215" height="7.552"/>
							</g>
							<g>
								<rect x="653.874" y="78.925" style="fill:#247088;" width="4.215" height="7.552"/>
							</g>
						</g>
					</g>
					<g>
						
							<rect x="674.136" y="93.235" transform="matrix(-1 -4.487711e-11 4.487711e-11 -1 1352.4883 194.0233)" style="fill:#247088;" width="4.215" height="7.552"/>
						
							<rect x="655.124" y="95.332" transform="matrix(-1 -4.487711e-11 4.487711e-11 -1 1314.4631 198.2167)" style="fill:#247088;" width="4.215" height="7.552"/>
					</g>
					
						<rect x="662.724" y="108.214" transform="matrix(-1 -4.495572e-11 4.495572e-11 -1 1333.9047 232.6276)" style="fill:#247088;" width="8.457" height="16.2"/>
				</g>
				<polygon style="fill:#D85539;" points="681.856,63.225 651.776,63.225 643.592,71.408 681.856,71.408 				"/>
			</g>
			<g>
				<rect x="642.078" y="100.074" style="fill:#E6CEB9;" width="22.98" height="36.814"/>
				<polygon style="fill:#DDB99E;" points="642.078,100.074 642.078,136.889 636.719,136.889 636.719,94.54 				"/>
				<g>
					<g>
						<g>
							<g>
								<rect x="658.702" y="103.795" style="fill:#247088;" width="2.85" height="5.107"/>
							</g>
							<g>
								<rect x="652.373" y="108.902" style="fill:#247088;" width="2.85" height="5.107"/>
							</g>
							<g>
								<rect x="646.136" y="105.157" style="fill:#247088;" width="2.85" height="5.107"/>
							</g>
						</g>
					</g>
					<g>
						
							<rect x="659.837" y="114.834" transform="matrix(-1 -4.466972e-11 4.466972e-11 -1 1322.5254 234.7746)" style="fill:#247088;" width="2.85" height="5.107"/>
						
							<rect x="644.711" y="114.834" transform="matrix(-1 -4.466972e-11 4.466972e-11 -1 1292.2721 234.7746)" style="fill:#247088;" width="2.85" height="5.107"/>
					</g>
					
						<rect x="652.12" y="124.962" transform="matrix(-1 -4.501123e-11 4.501123e-11 -1 1309.9592 260.8789)" style="fill:#247088;" width="5.718" height="10.954"/>
				</g>
				<polygon style="fill:#D85539;" points="636.719,94.54 659.524,94.54 665.058,100.074 642.078,100.074 				"/>
			</g>
			<g>
				<rect x="687.215" y="63.26" style="fill:#DDB99E;" width="22.98" height="36.814"/>
				<polygon style="fill:#E6CEB9;" points="687.215,63.26 687.215,100.074 681.856,100.074 681.856,57.726 				"/>
				<g>
					<g>
						<g>
							<g>
								<rect x="703.839" y="66.98" style="fill:#247088;" width="2.85" height="5.107"/>
							</g>
							<g>
								<rect x="697.51" y="72.087" style="fill:#247088;" width="2.85" height="5.107"/>
							</g>
							<g>
								<rect x="691.273" y="68.342" style="fill:#247088;" width="2.85" height="5.107"/>
							</g>
						</g>
					</g>
					<g>
						
							<rect x="704.974" y="78.019" transform="matrix(-1 -4.498858e-11 4.498858e-11 -1 1412.7994 161.146)" style="fill:#247088;" width="2.85" height="5.107"/>
						
							<rect x="689.848" y="78.019" transform="matrix(-1 -4.466972e-11 4.466972e-11 -1 1382.5461 161.146)" style="fill:#247088;" width="2.85" height="5.107"/>
					</g>
					
						<rect x="697.257" y="88.148" transform="matrix(-1 -4.501123e-11 4.501123e-11 -1 1400.2333 187.2503)" style="fill:#247088;" width="5.718" height="10.954"/>
				</g>
				<polygon style="fill:#D85539;" points="681.856,57.726 704.661,57.726 710.195,63.26 687.215,63.26 				"/>
			</g>
		</g>
		<g style="clip-path:url(#SVGID_00000020374515343550401120000005337016882902007197_);">
			<g>
				<g>
					<g>
						<g>
							<g>
								<rect x="540.432" y="176.794" style="fill:#247088;" width="4.215" height="7.552"/>
							</g>
						</g>
					</g>
					<g>
						
							<rect x="542.11" y="193.12" transform="matrix(-1 -4.487711e-11 4.487711e-11 -1 1088.4363 393.7918)" style="fill:#247088;" width="4.215" height="7.552"/>
						
							<rect x="523.098" y="195.216" transform="matrix(-1 -4.509294e-11 4.509294e-11 -1 1050.4111 397.9852)" style="fill:#247088;" width="4.215" height="7.552"/>
					</g>
					
						<rect x="530.698" y="208.098" transform="matrix(-1 -4.484825e-11 4.484825e-11 -1 1069.8528 432.3961)" style="fill:#247088;" width="8.457" height="16.2"/>
				</g>
			</g>
			<g>
				<rect x="552.809" y="151.408" style="fill:#DDB99E;" width="33.983" height="54.443"/>
				<g>
					<g>
						<g>
							<g>
								<rect x="566.162" y="161.484" style="fill:#247088;" width="4.215" height="7.552"/>
							</g>
							<g>
								<rect x="557.534" y="156.371" style="fill:#247088;" width="4.215" height="7.552"/>
							</g>
						</g>
					</g>
					<g>
						
							<rect x="576.094" y="173.235" transform="matrix(-1 -4.487711e-11 4.487711e-11 -1 1156.4032 354.0233)" style="fill:#247088;" width="4.215" height="7.552"/>
						
							<rect x="557.081" y="175.332" transform="matrix(-1 -4.487711e-11 4.487711e-11 -1 1118.3781 358.2166)" style="fill:#247088;" width="4.215" height="7.552"/>
					</g>
					
						<rect x="564.682" y="188.214" transform="matrix(-1 -4.495572e-11 4.495572e-11 -1 1137.8196 392.6276)" style="fill:#247088;" width="8.457" height="16.2"/>
				</g>
				<polygon style="fill:#D85539;" points="586.792,143.225 556.712,143.225 548.528,151.408 586.792,151.408 				"/>
			</g>
			<g>
				<rect x="544.035" y="180.074" style="fill:#E6CEB9;" width="22.98" height="36.814"/>
				<polygon style="fill:#DDB99E;" points="544.035,180.074 544.035,216.889 538.677,216.889 538.677,174.54 				"/>
				<g>
					<g>
						<g>
							<g>
								<rect x="560.66" y="183.795" style="fill:#247088;" width="2.85" height="5.107"/>
							</g>
							<g>
								<rect x="554.331" y="188.902" style="fill:#247088;" width="2.85" height="5.107"/>
							</g>
							<g>
								<rect x="548.094" y="185.157" style="fill:#247088;" width="2.85" height="5.107"/>
							</g>
						</g>
					</g>
					<g>
						
							<rect x="561.795" y="194.834" transform="matrix(-1 -4.466972e-11 4.466972e-11 -1 1126.4403 394.7746)" style="fill:#247088;" width="2.85" height="5.107"/>
						
							<rect x="550.753" y="197.898" transform="matrix(-1 -4.466972e-11 4.466972e-11 -1 1104.3572 400.9023)" style="fill:#247088;" width="2.85" height="5.107"/>
					</g>
				</g>
				<polygon style="fill:#D85539;" points="538.677,174.54 561.481,174.54 567.015,180.074 544.035,180.074 				"/>
			</g>
			<g>
				<rect x="589.547" y="117.857" style="fill:#DDB99E;" width="24.587" height="39.389"/>
				<polygon style="fill:#E6CEB9;" points="589.547,117.857 589.547,157.247 583.814,157.247 583.814,111.936 				"/>
				<g>
					<g>
						<g>
							<g>
								<rect x="607.335" y="121.838" style="fill:#247088;" width="3.05" height="5.464"/>
							</g>
							<g>
								<rect x="600.563" y="125.117" style="fill:#247088;" width="3.05" height="5.464"/>
							</g>
							<g>
								<rect x="593.889" y="121.383" style="fill:#247088;" width="3.05" height="5.464"/>
							</g>
						</g>
					</g>
					<g>
						
							<rect x="608.549" y="133.649" transform="matrix(-1 -4.473145e-11 4.473145e-11 -1 1220.1481 272.7625)" style="fill:#247088;" width="3.05" height="5.464"/>
					</g>
					
						<rect x="600.292" y="144.486" transform="matrix(-1 -4.504143e-11 4.504143e-11 -1 1206.7028 300.6928)" style="fill:#247088;" width="6.118" height="11.72"/>
				</g>
				<polygon style="fill:#D85539;" points="583.814,111.936 608.213,111.936 614.134,117.857 589.547,117.857 				"/>
			</g>
		</g>
		<path style="clip-path:url(#SVGID_00000020374515343550401120000005337016882902007197_);fill:#A5473D;" d="M750,0
			c0,0-23.128,11.936-25.426,18.064s-4.596,10.723-4.596,16.851s5.362,8.426,0,11.489c-5.362,3.064-6.894,3.064-9.957,6.128
			c-3.064,3.064-2.298-2.298-6.894,6.894c-4.596,9.191-4.596,7.66-6.894,15.319c-2.298,7.66-18.383,20.681-18.383,20.681
			s-5.362,1.532-8.426,4.596c-3.064,3.064-19.149,14.553-19.915,21.447c-0.766,6.894-7.66,22.979-7.66,22.979s0,15.622-6.894,17.617
			s-14.087,17.32-18.533,19.767c-4.446,2.446-14.403,10.872-14.403,13.17s-2.298,13.787-2.298,13.787s-0.766,3.83-4.596,6.894
			c-3.83,3.064-9.192,5.362-9.192,5.362l-18.383,23.745H750V0z"/>
		<path style="clip-path:url(#SVGID_00000020374515343550401120000005337016882902007197_);fill:#963A33;" d="M709.34,232.904
			c0,0,27.081,6.383,40.66,7.621v-70.71c-2.213-2.997-3.861-5.273-3.861-5.273l-3.437-5.457c0,0-0.681-6.468-0.681-9.872
			c0-3.404-1.021-3.064-1.702-4.085c-0.681-1.021-4.426-6.128-4.426-6.128l-3.745-4.426l-10.553-10.553c0,0,0.681,4.766,1.021,5.787
			c0.34,1.021,3.745,7.149,4.426,8.17c0.681,1.021,3.404,5.787,3.404,7.489s0,8.17,0,14.979c0,6.809,0,11.574,0,11.574l0.34,13.277
			c0,0-3.064,8.17-8.511,14.979c-5.447,6.809,0,7.489,0,9.532c0,2.043,0.34,6.468,0.34,8.851s-2.043,5.447-2.043,5.447
			L709.34,232.904z"/>
		<path style="clip-path:url(#SVGID_00000020374515343550401120000005337016882902007197_);fill:#963A33;" d="M724.574,18.064
			c-2.298,6.128-4.596,10.723-4.596,16.851c0,6.128,5.362,8.426,0,11.489c-5.362,3.064-6.894,3.064-9.957,6.128
			c-3.064,3.064-2.298-2.298-6.894,6.894c-4.596,9.191-4.596,7.66-6.894,15.319c-2.298,7.66-18.383,20.681-18.383,20.681
			s-5.362,1.532-8.426,4.596c-3.064,3.064-19.149,14.553-19.915,21.447c-0.766,6.894-7.66,22.979-7.66,22.979s0,15.622-6.894,17.617
			c-6.894,1.995-14.087,17.32-18.533,19.767c-4.446,2.446-14.403,10.872-14.403,13.17c0,2.298-2.298,13.787-2.298,13.787
			s-0.766,3.83-4.596,6.894c-3.83,3.064-9.192,5.362-9.192,5.362l-6.048,7.812c-0.049,2.579-0.08,4.05-0.08,4.05h121.277
			l-2.553-14.926l-0.766-1.532c0,0-1.277-5.872-2.298-8.17c-1.021-2.298-4.851-2.808-5.872-4.34l-1.787-7.915l0.766-4.851
			c0,0,7.149-8.17,9.702-10.979c2.553-2.809,0.255-2.298,0.255-2.298L689.34,171c0,0,1.021-1.787,4.851-8.426
			c3.83-6.638-0.766-3.574-0.766-3.574l-5.617-10.979l-7.149-19.404c0,0-4.34-4.085-4.851-5.362
			c-0.511-1.277,1.277-4.851,1.277-4.851s3.319-5.106,6.128-6.128c2.809-1.021,6.383,0.511,16.34-1.787
			c9.957-2.298,0.511-1.787,0.511-1.787s0-5.106-1.021-6.894c-1.021-1.787,0,0-1.277-1.277c-1.277-1.277,5.872-24.511,5.872-24.511
			l2.298-2.808c0,0,4.851-2.298,6.894-4.34s1.021-5.362,1.021-5.362l5.362-4.851l8.936-1.532l10.468-5.872l-5.362-6.638v-3.319
			l2.553-6.638l-1.532-2.553l-3.064-3.319l-0.511-3.319l7.915-4.596l2.043-9.191c0,0,0,0,1.277-2.043C743.213,7.596,750,0,750,0
			S726.872,11.936,724.574,18.064z"/>
		<g style="clip-path:url(#SVGID_00000020374515343550401120000005337016882902007197_);">
			<g>
				<rect y="232.904" style="fill:#4DB4C7;" width="750" height="267.095"/>
				<path style="fill:#6BC9D6;" d="M212.639,427.851c0,0,101.808,17.872,89.212-2.553c-12.596-20.426,27.574,9.661,18.383-7.765
					s-23.489-45.001,56.511-22.192s33.019,0.681,46.637-4.766s62.299,38.809,53.788,12.596
					c-8.511-26.213,107.234,31.319,101.106,10.894c-6.128-20.426,114.882,35.906,114.882,35.906l-88.721,40.63
					c0,0-139.637,7.6-197.41,2.681s-97.642,1.005-109.151-5.362c-11.509-6.366-90.323-21.345-90.323-21.345L212.639,427.851z"/>
				<path style="fill:#6BC9D6;" d="M421.766,293.581c0,0,29.872,4.816,12,12.607s-45.277,7.28-33.362,10.855
					c11.915,3.574,0.851,6.894-12.511,9.957s-23.83,12-3.149,12.255c20.681,0.255-7.026,14.298-52.151,16.851
					s-51.253,10.468-34.402,11.745c16.851,1.277,15.574,13.708-20.17,16.429c-35.745,2.72-66.894,9.359-42.894,14.21
					c24,4.851-7.83,13.532-38.128,13.191s-74.465,59.97-74.465,59.97s-117.34-0.77-113.948-23.306
					c3.392-22.536,13.109-52.664,13.109-52.664l94.453-58.213l70.306-31.93l66.994-10.453c0,0,87.551-9.256,90.785-8.202
					S421.766,293.581,421.766,293.581z"/>
				<path style="fill:#FFFFFF;" d="M750,319.766c-23.681-9.191-77.426-9.532-62.447,0c14.979,9.532-5.447,4.085-52.766,19.745
					c-47.319,15.66-29.617,27.574-14.475,40.17c15.142,12.596,9.709,48.34-42.376,52.426c-52.085,4.085-74.894-21.447-86.355-18.383
					c-11.461,3.064,24.738,25.532-72.964,0.34c-97.702-25.192-91.574,4.425-78.298,24.659c13.277,20.233,3.404,17.554-65.362,4.278
					c-68.766-13.277-65.362,7.149-53.106,23.149S120.404,464.787,98.617,475c-21.787,10.213-4.426,25-4.426,25H750V319.766z"/>
				<path style="fill:#E6CEB9;" d="M240.485,467.872c-23.666-22.04,47.863-8.184,97.499-6.5
					c49.636,1.684-63.817-68.161,105.476-34.479c169.293,33.681,209.179-3.545,186.134-54.067
					c-23.045-50.522,120.747-36.174,120.747-36.174V500H109.851C73.851,463.324,265.008,490.71,240.485,467.872z"/>
				<path style="fill:#DDBBA2;" d="M629.253,373.122c23.045,50.522-16.841,87.749-186.134,54.067
					c-169.293-33.681-55.84,36.164-105.476,34.479c-49.636-1.684-121.164-15.54-97.499,6.5
					c24.522,22.838-166.634-4.846-130.634,31.831h8.851c0,0-17.191-14.617,20.936-13.085c38.128,1.532,119.66,8,111.489-10.383
					c-8.17-18.383,18.043-19.574,57.872-6.298c39.83,13.277,64.085,10.979,55.66-12.511s-1.532-39.83,29.362-31.149
					S519.043,475,594.957,459.34c75.915-15.66,54.808-56.511,45.617-80c-9.191-23.489-1.064-40.17,109.426-31.319v-11.073
					C750,336.948,606.208,322.6,629.253,373.122z"/>
			</g>
			<path style="fill:#CAE9EA;" d="M329.665,232.904c0,0-19.367-44.144-73.621-27.251c0,0-7.819-17.875-28.775-12.636
				c0,0-4.286-37.148-47.15-32.386c0,0-1.429-20.479-23.813-20.003c0,0,7.62-35.72-28.576-39.054c0,0,1.429-17.622-13.812-19.05
				c0,0,5.182-33.312-32.35-34.078c0,0,10.553-39.021-19.745-48.447H0v232.904H329.665z"/>
			<path style="fill:#6BC9D6;" d="M454.176,314.274c0,0-45.942,7.62-38.027,11.705c7.915,4.085,13.23,4.387-0.917,9.087
				c-14.147,4.7-11.849,14.493,21.598,17.639c33.447,3.146-5.872,8.774,8.17,13.748c14.043,4.973,65.872,2.165,48.511,9.569
				c-17.362,7.404,27.319,9.217,57.702,3.204c30.383-6.013,20.426-15.459,7.404-19.544c-13.021-4.085,40.34-13.277,27.574-20.681
				c-12.766-7.404,19.13-7.975,34.121-8.936c14.991-0.961,34.049-1.846,25.624-6.668s35.234-4.486,22.723-9.122
				c-12.511-4.636,47.408-0.562,38.13-10.386c-9.278-9.824,22.381-0.122,10.892-12.122s-62.783-15.952-62.783-15.952
				L454.176,314.274z"/>
			<path style="fill:#38A3BD;" d="M453.431,318.746c0,0-28.601,3.914-21.452,7.233c7.149,3.319,10.213,7.404-2.553,10.979
				c-12.766,3.574,1.473,6.638,22.439,10.468c20.965,3.83,30.072,5.191,22.242,8.766c-7.83,3.574-3.404,6.979,12.766,6.809
				c16.17-0.17,30.809,2.383,23.149,5.106c-7.66,2.723,14.468,3.234,25.191,2.553s3.064-7.319-2.723-9.191
				s-25.032-8.681-6.303-9.702c18.729-1.021,19.887-4.834,11.308-6.928c-8.579-2.094-11.498-4.306,6.642-5.157
				s39.077,1.191,29.545-2.894s-9.702-8.511,6.468-9.362c16.17-0.851,15.66-4.596,6.468-6.979c-9.191-2.383,3.3-4.936,17.82-4.936
				c14.52,0,48.052,0.888,41.584-3.897c-6.468-4.784,1.532-5.125,24-3.763c22.468,1.362,30.675-0.087,23.137-3.963
				c-7.538-3.876-2.542-8.122,10.394-7.441c12.936,0.681,9.192-7.319-27.404-9.702C639.553,284.362,453.431,318.746,453.431,318.746
				z"/>
			<g>
				<path style="fill:#38A3BD;" d="M423.382,299.957c0,0,9.107,3.801-12.595,6.231s-20.17,7.791-20.17,7.791
					s4.596,5.106-6.638,5.617c-11.234,0.511-17.106,2.239-15.064,3.8c2.043,1.561-3.83,6.157-9.957,6.668
					c-6.128,0.511-7.915,3.621,0,5.002c7.915,1.381,3.319,3.679-12.255,5.722s-39.064-0.511-33.702-4.085s-0.766-8.948-5.617-8.559
					c-4.851,0.389-15.83-1.457-10.213-4.747c5.617-3.29-4.835-5.577-15.311-1.88c-10.476,3.697,10.476,4.718,0,8.037
					s-31.923,9.191-21.199,9.702c10.723,0.511,1.532,7.149-19.149,10.468c-20.681,3.319-16.851,8.936-11.489,8.681
					c5.362-0.255,11.951,3.33-4.237,8.048c-16.188,4.718-20.529,14.165,4.237,14.165s-13.45,13.706-65.362,19.149
					S137.596,411,148.319,411s5.872,3.787-7.787,6.745s-25.193,14.618-11.767,12.873s10.213,8.375-15.755,10.719
					s-54.053,14.467-35.67,16.065s-1.181,10.279-17.952,12.832s-35.154,8.764-16.771,8.467c18.383-0.297-0.511,9.916-12.255,14.001
					C18.617,496.787,41.085,500,41.085,500H0V399.979l101.469-65.308l144.875-30.782l62.826-35.328h35.064l39.488,13.299
					L423.382,299.957z"/>
				<g>
					<g>
						<polygon style="fill:#A5473D;" points="408.695,280.821 408.695,269.249 392.229,247.442 390.449,229.641 367.307,212.284 
							334.819,174.901 319.687,176.681 296.1,171.341 276.964,176.681 276.964,200.713 262.722,197.598 251.596,203.829 
							255.157,235.426 250.706,255.008 255.157,282.156 233.572,301.292 294.765,301.292 313.012,306.188 332.594,306.188 
							335.709,312.418 355.736,312.418 371.312,299.957 423.382,299.957 423.382,289.276 						"/>
						<path style="fill:#963A33;" d="M335.605,194.66L341,208.787l19.574,13.682l8.17,20.871l8,9.021c0,0-0.17,9.702,0,10.213
							c0.17,0.511,18.723,11.234,18.723,11.234l-1.532,16.019l6.468,10.129h-29.092l-15.576,12.461h-20.027l-3.115-6.231h-9.296
							l4.255-6.231l0.924-20.021l10.14-7.489l3.064-9.532l-3.064-9.376l1.702-13.603l-3.064-11.745l6.979-7.149l-8.629-6.979V194.66
							z"/>
						<polygon style="fill:#BA5C4D;" points="408.695,269.249 392.229,247.442 390.449,229.641 367.307,212.284 379.638,229.641 
							385.766,232.957 380.319,246.404 393.596,257.382 392.745,264.787 401.085,268.702 405.511,280.787 404.83,286.883 
							423.382,289.276 408.695,280.82 						"/>
						<g>
							<path style="fill:#BA5C4D;" d="M319.687,176.681l-23.587-5.341l-19.137,5.341l6.164,5.808l12.766,1.021l13.787,15.064
								l-3.319,16.34c0,0,20.17,27.121,20.17,26.965c0-0.156-11.234-28.241-11.489-29.262s7.915-14.298,7.915-14.298l-1.277-7.149
								l13.138-16.269L319.687,176.681z"/>
							<polygon style="fill:#BA5C4D;" points="262.722,197.598 251.596,203.828 266.787,202.149 284.149,218.234 291.043,247.34 
								291.043,219.511 276.964,200.713 							"/>
							<polygon style="fill:#BA5C4D;" points="367.307,212.284 334.819,174.901 350.021,205.213 							"/>
						</g>
					</g>
					<g>
						<g>
							<g>
								<polygon style="fill:#A5473D;" points="332.594,306.188 335.709,312.418 338.617,281.859 								"/>
							</g>
							<g>
								<polygon style="fill:#A5473D;" points="356.83,264.106 344.234,241.88 350.362,261.013 351.063,275.17 355.736,298.83 
									354.447,305.298 355.736,312.418 371.312,299.957 356.83,273.979 								"/>
							</g>
							<polygon style="fill:#963A33;" points="292.319,281.859 274.957,250 281.859,284.021 275.979,301.292 294.765,301.292 
															"/>
							<g>
								<polygon style="fill:#A5473D;" points="382.021,273.808 380.319,285.723 383.553,299.957 395.468,299.957 384.574,285.894 
																	"/>
							</g>
							<polygon style="fill:#963A33;" points="233.572,301.292 275.979,301.292 259.128,292.872 263.553,279.766 250.706,255.008 
								255.157,282.156 							"/>
							<polygon style="fill:#963A33;" points="314.447,289.298 309,297.638 308.319,273.468 303.043,290.83 294.765,301.292 
								313.012,306.188 							"/>
						</g>
					</g>
				</g>
				<g>
					<polygon style="fill:#A5473D;" points="0,0 14.835,23.142 24.329,35.01 46.284,53.998 60.526,78.327 83.668,94.349 
						101.469,110.37 109.777,126.985 119.999,139.429 123.425,146.567 133.512,170.302 154.281,204.125 171.489,222.52 
						184.543,232.014 189.291,243.882 202.345,251.003 210.059,255.157 210.059,270.585 219.553,281.859 233.795,278.299 
						245.069,293.727 259.31,297.287 271.771,305.001 281.859,313.308 271.771,318.056 259.31,318.056 245.662,325.176 
						232.014,325.176 227.861,334.67 215.4,340.503 212.433,352.472 189.291,360.779 164.962,360.779 145.38,369.087 
						145.38,379.768 128.765,388.075 127.578,397.569 88.415,417.745 67.646,417.745 58.152,426.645 49.845,435.546 35.01,435.546 
						16.615,442.074 0,459.282 					"/>
					<polygon style="fill:#963A33;" points="16.615,442.073 35.01,435.546 49.845,435.546 58.152,426.645 67.646,417.745 
						88.415,417.745 112.748,405.209 69.17,337.468 69.17,314.255 59.388,281.859 69.17,244.983 64.574,199.275 47.723,194.8 
						41.085,184.64 41.085,165.383 15.553,136.787 0,62.745 0,459.282 					"/>
					<polygon style="fill:#BA5C4D;" points="219.553,281.859 210.059,270.585 210.059,255.156 202.345,251.003 189.291,243.882 
						184.543,232.014 171.489,222.52 154.281,204.125 133.512,170.302 123.425,146.567 119.999,139.429 109.777,126.985 
						101.469,110.37 83.668,94.349 77.695,90.213 61.511,107 86.362,118.574 92.489,132.191 108.149,141.723 122.106,171.046 
						136.404,206.251 151.383,225.302 170.106,229.485 178.957,234.227 185.766,250 201.085,257.382 201.085,274.149 					"/>
					<polygon style="fill:#BA5C4D;" points="24.064,57.979 37.34,91.34 61.511,107 101.469,110.37 83.668,94.349 60.526,78.327 
						46.284,53.998 24.329,35.01 14.835,23.142 0,0 12.83,47.426 					"/>
					<g>
						<polygon style="fill:#A5473D;" points="16.615,442.073 0,434.329 0,459.282 						"/>
						<polygon style="fill:#BA5C4D;" points="128.765,388.075 97.255,343.085 112.748,405.209 127.578,397.569 						"/>
						<polygon style="fill:#BA5C4D;" points="59.468,151.326 78.872,157.621 109.511,215.46 109.511,294.064 136.574,316.201 
							146.277,335.066 164.962,360.779 189.291,360.779 165.681,316.936 128.404,290.489 124.319,228.658 81.936,142.915 
							61.511,137.808 30.362,112.287 						"/>
						<polygon style="fill:#BA5C4D;" points="145.38,369.087 101.469,305.538 128.765,388.075 145.38,379.768 						"/>
						<polygon style="fill:#A5473D;" points="35.01,435.546 49.845,435.546 15.553,337.468 						"/>
						<polygon style="fill:#A5473D;" points="30.362,279.766 67.646,417.745 88.415,417.745 						"/>
					</g>
					<polygon style="fill:#BA5C4D;" points="212.433,352.472 196.319,332.702 193.936,312.418 173.511,290.489 157.511,261.013 
						186.787,290.83 202.787,302.404 215.4,340.503 					"/>
					<polygon style="fill:#BA5C4D;" points="232.014,325.176 219.553,308.362 227.861,334.67 					"/>
					<polygon style="fill:#BA5C4D;" points="259.31,318.056 235.128,297.638 271.771,318.056 					"/>
				</g>
				<g>
					<polygon style="fill:#A5473D;" points="544.136,225.005 593.387,136.59 612.969,132.881 630.771,137.777 651.243,135.551 
						673.94,147.123 681.06,171.155 673.94,192.517 681.06,213.434 681.06,256.157 685.511,264.168 681.06,280.635 681.06,297.324 
						620.312,297.324 613.748,303.888 551.108,303.888 					"/>
					<polyline style="fill:#963A33;" points="681.06,297.324 671.468,289.276 671.468,270.574 664.83,247.596 664.83,237.128 
						662.787,218.385 656.915,240.702 659.468,246.064 656.915,260.362 661.511,272.872 656.915,297.324 649,297.324 
						650.277,285.128 646.702,267.255 642.106,241.979 640.574,271.851 642.617,281.809 639.043,289.87 631.383,287.936 
						631.383,265.723 620.312,297.324 681.06,297.324 					"/>
					<polygon style="fill:#BA5C4D;" points="623.213,149.808 614.823,189.383 634.447,151.851 644.404,147.766 648.745,156.191 
						640.574,184.277 650.532,213.383 647.979,186.62 663.298,164.617 674.532,171.341 666.617,196.277 674.532,218.385 
						672.745,241.879 681.06,256.157 681.06,213.434 673.94,192.517 681.06,171.155 673.94,147.122 651.243,135.551 
						630.771,137.777 612.969,132.881 593.387,136.59 613.766,136.59 					"/>
					<polygon style="fill:#963A33;" points="544.136,225.005 551.108,303.888 613.748,303.888 620.312,297.324 613.766,268.277 
						610.191,296.362 604.574,292.532 601.766,281.553 593.387,273.808 592.574,250.78 584.404,266.489 572.149,254.745 
						567.553,244.787 569.34,234.064 562.447,221.553 593.387,136.59 					"/>
				</g>
				<g>
					<polygon style="fill:#A5473D;" points="451.864,328.143 455.425,306.781 472.336,289.87 483.017,241.879 498.445,229.641 
						507.643,227.564 510.016,210.356 530.785,186.62 544.433,186.62 553.63,232.904 563.718,300.847 563.718,323.396 
						529.301,323.396 523.071,328.143 					"/>
					<g>
						<polygon style="fill:#963A33;" points="545.255,286.883 537.255,263.766 538.957,293.213 543.043,316.872 540.149,323.396 
							556.66,323.396 545.255,295.255 						"/>
						<polygon style="fill:#963A33;" points="552.574,262.915 546.414,250.78 554.787,287.936 563.718,300.847 560.941,282.145 
													"/>
						<polygon style="fill:#963A33;" points="524.489,295.085 523.071,328.143 529.301,323.396 						"/>
					</g>
					<polygon style="fill:#963A33;" points="531.298,230.745 515.979,250.78 499.638,261.383 497.596,275.936 481.766,284.872 
						478.447,306.188 451.864,328.143 523.071,328.143 512.915,317.043 515.468,297.139 509.596,289.87 517.511,273.468 
						517.766,262.915 525.936,253.539 					"/>
					<polygon style="fill:#A5473D;" points="506.957,328.143 503.894,320.787 505.426,306.66 503.894,289.276 502.191,307.511 
						497.085,328.143 483.128,328.143 485.851,321.809 489.936,306.66 473.085,328.143 					"/>
					<polygon style="fill:#BA5C4D;" points="544.433,186.62 530.785,186.62 510.016,210.356 507.643,227.564 498.445,229.641 
						483.017,241.879 472.336,289.87 488.66,250.78 497.085,245.298 507.791,247.34 503.213,239.936 517,235.34 524.149,226.149 
						513.426,219.511 520.319,208.021 536.021,209.426 524.532,202.404 530.277,191.426 					"/>
				</g>
			</g>
			<g>
				<g>
					
						<text transform="matrix(1 0 0 1 291.6606 68.9224)" style="fill:#FFFFFF; font-family:'LibreBodoniRoman-Bold'; font-size:51.6259px; letter-spacing:7;">CAPRI</text>
				</g>
				<g>
					
						<text transform="matrix(1 0 0 1 284.6434 95.62)" style="fill:#FFFFFF; font-family:'LibreBodoniRoman-Bold'; font-size:15px; letter-spacing:34;">ITALY</text>
				</g>
			</g>
			<path style="fill:#63643A;" d="M182.702,382.404c0,0,43.484-4.059,36.851,20.681c-6.914,25.787,10.468,27.159,23.489,25.787
				c18.976-1.998,30.573,5.847,29.234,24c-1.339,18.153,11.736,6.982,34.236,11.654c22.499,4.671,9.158,30.354,32.792,20.249
				S361.843,500,361.843,500H182.91L182.702,382.404z"/>
			<path style="fill:#63643A;" d="M50.82,448.345c0,0,1.499-14.026,19.031-9.6s7.959-19.064,28.32-14.809
				c20.361,4.255,9.814-12.613,24.364-12.613v37.021L50.82,448.345z"/>
			<path style="fill:#51512C;" d="M82.836,448.345c0,0,0.83-7.764,10.535-5.314s4.406-10.553,15.677-8.198
				c11.271,2.356,5.433-6.982,13.487-6.982v20.494L82.836,448.345z"/>
			<path style="fill:#51512C;" d="M182.702,411.51c0,0,32.722-3.054,27.73,15.562c-5.203,19.405,7.877,20.437,17.676,19.405
				c14.279-1.504,23.006,4.4,21.998,18.06c-1.008,13.66,8.831,5.254,25.762,8.769c16.931,3.515,6.891,22.841,24.675,15.237
				C318.328,480.939,317.505,500,317.505,500H182.858L182.702,411.51z"/>
			<g>
				<g>
					
						<rect x="0" y="304.638" transform="matrix(-1 -4.492019e-11 4.492019e-11 -1 122.535 624.2553)" style="fill:#E6CEB9;" width="122.535" height="14.979"/>
					<rect x="0" y="314.255" style="fill:#CC946E;" width="122.535" height="5.362"/>
				</g>
				<g>
					
						<rect x="0.358" y="448.345" transform="matrix(-1 -4.489621e-11 4.489621e-11 -1 199.9706 911.6686)" style="fill:#E6CEB9;" width="199.255" height="14.979"/>
					
						<rect x="0.358" y="448.345" transform="matrix(-1 -4.489621e-11 4.489621e-11 -1 199.9706 899.9407)" style="fill:#CC946E;" width="199.255" height="3.251"/>
					
						<rect x="0.358" y="463.324" transform="matrix(-1 -4.489621e-11 4.489621e-11 -1 199.9706 963.3237)" style="fill:#CC946E;" width="199.255" height="36.676"/>
					<rect x="0.358" y="457.962" style="fill:#B5764B;" width="199.255" height="5.362"/>
				</g>
				<g>
					
						<rect x="199.613" y="463.324" transform="matrix(-1 -1.820780e-10 1.820780e-10 -1 448.3574 941.626)" style="fill:#E6CEB9;" width="49.132" height="14.979"/>
					
						<rect x="199.613" y="463.324" transform="matrix(-1 -1.820780e-10 1.820780e-10 -1 448.3574 929.8981)" style="fill:#CC946E;" width="49.132" height="3.251"/>
					
						<rect x="199.613" y="478.302" transform="matrix(-1 -1.076993e-10 1.076993e-10 -1 448.3574 978.3023)" style="fill:#CC946E;" width="49.132" height="21.698"/>
					
						<rect x="199.613" y="478.302" transform="matrix(-1 -1.085085e-09 1.085085e-09 -1 404.1022 978.3023)" style="fill:#B5764B;" width="4.877" height="21.698"/>
					<rect x="199.613" y="472.941" style="fill:#B5764B;" width="49.132" height="5.362"/>
				</g>
				<g>
					
						<rect x="248.745" y="478.302" transform="matrix(-1 -1.820780e-10 1.820780e-10 -1 546.6208 971.5834)" style="fill:#E6CEB9;" width="49.132" height="14.979"/>
					
						<rect x="248.745" y="478.302" transform="matrix(-1 -1.820780e-10 1.820780e-10 -1 546.6208 959.8555)" style="fill:#CC946E;" width="49.132" height="3.251"/>
					
						<rect x="248.745" y="493.281" transform="matrix(-1 -3.335744e-11 3.335744e-11 -1 546.6208 993.281)" style="fill:#CC946E;" width="49.132" height="6.719"/>
					
						<rect x="248.745" y="493.281" transform="matrix(-1 -3.483366e-10 3.483366e-10 -1 502.1941 993.281)" style="fill:#B5764B;" width="4.705" height="6.719"/>
					<rect x="248.745" y="487.919" style="fill:#B5764B;" width="49.132" height="5.362"/>
				</g>
				<g>
					<g>
						<g>
							<rect x="75.164" y="326.625" style="fill:#CC946E;" width="34.487" height="7.008"/>
							<path style="fill:#D8B59C;" d="M80.881,333.633c0,0,5.887,17.282,2.142,36.345c-3.745,19.064-11.603,35.764-2.142,64.35
								h11.526V333.633H80.881z"/>
							<path style="fill:#E6CEB9;" d="M103.934,333.633c0,0-5.887,17.282-2.142,36.345c3.745,19.064,11.603,35.764,2.142,64.35
								H92.408V333.633H103.934z"/>
							<rect x="71.291" y="319.617" style="fill:#B5764B;" width="42.233" height="7.008"/>
						</g>
						
							<rect x="75.164" y="434.329" transform="matrix(-1 8.122269e-12 -8.122269e-12 -1 184.8156 875.6655)" style="fill:#CC946E;" width="34.487" height="7.008"/>
						
							<rect x="71.291" y="441.337" transform="matrix(-1 -1.636591e-12 1.636591e-12 -1 184.8156 889.6818)" style="fill:#E6CEB9;" width="42.233" height="7.008"/>
					</g>
					<g>
						<g>
							<rect x="12.46" y="326.625" style="fill:#CC946E;" width="34.487" height="7.008"/>
							<path style="fill:#D8B59C;" d="M18.177,333.633c0,0,5.887,17.282,2.142,36.345c-3.745,19.064-11.603,35.764-2.142,64.35
								h11.526V333.633H18.177z"/>
							<path style="fill:#E6CEB9;" d="M41.23,333.633c0,0-5.887,17.282-2.142,36.345c3.745,19.064,11.603,35.764,2.142,64.35H29.704
								V333.633H41.23z"/>
							<rect x="8.587" y="319.617" style="fill:#B5764B;" width="42.233" height="7.008"/>
						</g>
						
							<rect x="12.46" y="434.329" transform="matrix(-1 8.122269e-12 -8.122269e-12 -1 59.4073 875.6655)" style="fill:#CC946E;" width="34.487" height="7.008"/>
						
							<rect x="8.587" y="441.337" transform="matrix(-1 -1.636591e-12 1.636591e-12 -1 59.4073 889.6818)" style="fill:#E6CEB9;" width="42.233" height="7.008"/>
					</g>
				</g>
				
					<rect x="122.535" y="295.085" transform="matrix(-1 -4.488599e-11 4.488599e-11 -1 322.148 743.4301)" style="fill:#D8B59C;" width="77.078" height="153.26"/>
				
					<rect x="161.074" y="295.085" transform="matrix(-1 -4.493307e-11 4.493307e-11 -1 360.687 743.4301)" style="fill:#E6CEB9;" width="38.539" height="153.26"/>
				
					<rect x="122.535" y="295.085" transform="matrix(-1 -9.442562e-13 9.442562e-13 -1 322.1482 593.421)" style="fill:#CC946E;" width="77.078" height="3.251"/>
				
					<rect x="136.186" y="0" transform="matrix(-1 -4.489354e-11 4.489354e-11 -1 322.148 295.0851)" style="fill:#D8B59C;" width="49.777" height="295.085"/>
				
					<rect x="168.549" y="0" transform="matrix(-1 -4.491841e-11 4.491841e-11 -1 354.5114 295.0851)" style="fill:#E6CEB9;" width="17.413" height="295.085"/>
			</g>
			<g>
				<g>
					<path style="fill:#63643A;" d="M693.159,261.013c0,0-3.619,3.763-3.04,8.685c0.579,4.921-4.198,6.948-2.316,11.001
						c1.882,4.053-4.342,5.645-1.447,10.711c2.895,5.066-4.053,11.29-1.448,17.08s-3.22,8.395-0.597,13.317
						c2.623,4.921-5.917,10.422-1.719,18.528c4.198,8.106-3.811,12.304-1.182,18.093s-7.214,12.593-2.871,19.107
						c4.342,6.514-3.885,12.111-1.122,17.128s-4.697,11.966-0.581,17.563c4.116,5.597-5.727,12.159-2.446,19.686
						s-4.645,16.019-0.682,22.581c3.963,6.562-5.466,8.492-1.138,15.826s-6.672,16.791-6.672,30.107h27.261V261.013z"/>
					<path style="fill:#51512C;" d="M693.159,261.013c0,0,3.619,3.763,3.04,8.685c-0.579,4.921,4.198,6.948,2.316,11.001
						c-1.882,4.053,4.342,5.645,1.447,10.711s4.053,11.29,1.448,17.08c-2.605,5.79,3.22,8.395,0.597,13.317
						c-2.623,4.921,5.917,10.422,1.719,18.528c-4.198,8.106,3.811,12.304,1.182,18.093c-2.629,5.79,7.214,12.593,2.871,19.107
						s3.885,12.111,1.122,17.128s4.697,11.966,0.581,17.563s5.727,12.159,2.446,19.686s4.645,16.019,0.682,22.581
						c-3.963,6.562,5.466,8.492,1.138,15.826s6.672,16.791,6.672,30.107h-27.261V261.013z"/>
				</g>
				<g>
					<path style="fill:#63643A;" d="M556.66,332.106c0,0-2.544,2.646-2.137,6.106c0.407,3.46-2.951,4.885-1.628,7.734
						c1.323,2.849-3.053,3.969-1.018,7.531c2.035,3.562-2.849,7.938-1.018,12.008c1.832,4.071-2.264,5.902-0.419,9.362
						c1.844,3.46-4.16,7.327-1.209,13.026s-2.679,8.65-0.831,12.721c1.848,4.071-5.072,8.854-2.019,13.433
						c3.053,4.579-2.731,8.514-0.789,12.042c1.942,3.528-3.302,8.413-0.408,12.347c2.894,3.935-4.026,8.548-1.72,13.84
						c2.307,5.292-3.266,11.262-0.48,15.875s-3.843,5.97-0.8,11.126c3.043,5.156-4.691,11.805-4.691,21.167h19.166V332.106z"/>
					<path style="fill:#51512C;" d="M556.66,332.106c0,0,2.544,2.646,2.137,6.106c-0.407,3.46,2.951,4.885,1.628,7.734
						c-1.323,2.849,3.053,3.969,1.018,7.531c-2.035,3.562,2.849,7.938,1.018,12.008c-1.832,4.071,2.264,5.902,0.419,9.362
						c-1.844,3.46,4.16,7.327,1.209,13.026s2.679,8.65,0.831,12.721c-1.848,4.071,5.072,8.854,2.019,13.433
						c-3.053,4.579,2.731,8.514,0.789,12.042c-1.942,3.528,3.302,8.413,0.408,12.347c-2.894,3.935,4.026,8.548,1.72,13.84
						c-2.307,5.292,3.266,11.262,0.48,15.875s3.843,5.97,0.8,11.126c-3.043,5.156,4.691,11.805,4.691,21.167H556.66V332.106z"/>
				</g>
				<g>
					<path style="fill:#63643A;" d="M750,157.621c0,0-5.181,5.389-4.352,12.435c0.829,7.047-6.01,9.948-3.316,15.752
						c2.694,5.803-6.218,8.083-2.073,15.337c4.145,7.254-5.803,16.166-2.073,24.456c3.731,8.29-4.61,12.021-0.854,19.068
						s-8.472,14.923-2.462,26.529c6.01,11.606-5.456,17.617-1.692,25.907c3.764,8.29-10.329,18.031-4.111,27.358
						s-5.563,17.341-1.607,24.526s-6.725,17.133-0.832,25.147c5.893,8.014-8.2,17.41-3.503,28.187
						c4.698,10.777-6.651,22.937-0.977,32.332c5.675,9.396-7.827,12.159-1.629,22.66c6.198,10.501-9.553,24.042-9.553,43.11H750
						V157.621z"/>
					<path style="fill:#51512C;" d="M750,157.621c0,0,5.181,5.389,4.352,12.435c-0.829,7.047,6.01,9.948,3.316,15.752
						c-2.694,5.803,6.218,8.083,2.073,15.337c-4.145,7.254,5.803,16.166,2.073,24.456c-3.731,8.29,4.61,12.021,0.854,19.068
						s8.472,14.923,2.462,26.529c-6.01,11.606,5.456,17.617,1.692,25.907c-3.764,8.29,10.329,18.031,4.111,27.358
						s5.563,17.341,1.607,24.526s6.725,17.133,0.832,25.147c-5.893,8.014,8.2,17.41,3.503,28.187
						c-4.698,10.777,6.651,22.937,0.977,32.332c-5.675,9.396,7.827,12.159,1.629,22.66c-6.198,10.501,9.553,24.042,9.553,43.11H750
						V157.621z"/>
				</g>
				<g>
					<path style="fill:#63643A;" d="M621.258,204.984c0,0-4.466,4.644-3.751,10.717s-5.18,8.574-2.858,13.575
						c2.322,5.001-5.359,6.966-1.786,13.218c3.572,6.252-5.001,13.933-1.786,21.077c3.215,7.145-3.973,10.36-0.736,16.433
						s-7.302,12.861-2.122,22.864c5.18,10.003-4.702,15.183-1.458,22.328c3.244,7.145-8.902,15.54-3.543,23.578
						c5.359,8.038-4.794,14.945-1.385,21.137c3.409,6.192-5.796,14.766-0.717,21.673c5.079,6.907-7.067,15.004-3.019,24.293
						s-5.732,19.768-0.842,27.865s-6.746,10.479-1.404,19.529c5.342,9.05-8.233,20.72-8.233,37.153h33.641V204.984z"/>
					<path style="fill:#51512C;" d="M621.258,204.984c0,0,4.466,4.644,3.751,10.717c-0.715,6.073,5.18,8.574,2.858,13.575
						c-2.322,5.001,5.359,6.966,1.786,13.218c-3.572,6.252,5.001,13.933,1.786,21.077c-3.215,7.145,3.973,10.36,0.736,16.433
						c-3.237,6.073,7.302,12.861,2.122,22.864s4.702,15.183,1.458,22.328c-3.244,7.145,8.902,15.54,3.543,23.578
						s4.794,14.945,1.385,21.137c-3.409,6.192,5.796,14.766,0.717,21.673c-5.079,6.907,7.067,15.004,3.019,24.293
						s5.732,19.768,0.842,27.865s6.746,10.479,1.404,19.529c-5.342,9.05,8.233,20.72,8.233,37.153h-33.641V204.984z"/>
				</g>
			</g>
			<g>
				<g class="sun-item">
					<circle class="sun" style="fill:#EDC64A;" cx="417.426" cy="167.476" r="36.091"/>
					<circle class="sun" style="fill:#EA9B18;" cx="417.426" cy="167.476" r="30.907"/>
				</g>
			</g>
		</g>
		<g style="clip-path:url(#SVGID_00000020374515343550401120000005337016882902007197_);">
			<defs>
				<rect id="SVGID_00000047060498681875098720000003320619765380961952_" x="331.128" y="387" width="250.723" height="113"/>
			</defs>
			<clipPath id="SVGID_00000015313709899358857090000015222131154142181053_">
				<use xlink:href="#SVGID_00000047060498681875098720000003320619765380961952_"  style="overflow:visible;"/>
			</clipPath>
			<g style="clip-path:url(#SVGID_00000015313709899358857090000015222131154142181053_);">
				<g>
					<ellipse style="fill:#DDBBA2;" cx="440.624" cy="472.367" rx="3.096" ry="1.628"/>
				</g>
				<g>
					
						<rect x="444.983" y="421.532" transform="matrix(0.977 0.2134 -0.2134 0.977 105.7412 -84.8846)" style="fill:#EA3847;" width="2.197" height="51.702"/>
					<g>
						<path style="fill:#EA3847;" d="M451.597,422.127c-26.366-5.759-39.802,9.487-39.802,9.487l72.024,15.732
							C483.819,447.346,477.963,427.886,451.597,422.127z"/>
						<path style="fill:#FFFFFF;" d="M451.597,422.127c-17.381-3.796-27.53,12.168-27.53,12.168l47.479,10.37
							C471.547,444.665,468.978,425.923,451.597,422.127z"/>
						<path style="fill:#F25A6C;" d="M451.597,422.127c-7.524-1.643-14.067,15.108-14.067,15.108l20.554,4.489
							C458.084,441.725,459.122,423.77,451.597,422.127z"/>
					</g>
				</g>
				<g>
					<polygon style="fill:#DDBBA2;" points="358.773,436.922 390.432,475.22 426.688,458.625 390.372,429.023 					"/>
					<polygon style="fill:#EA9B18;" points="360.13,433.688 391.789,471.986 428.045,455.391 391.729,425.789 					"/>
					<polygon style="fill:#EDC64A;" points="369.614,431.317 402.586,467.044 406.623,465.196 372.177,430.676 					"/>
					<polygon style="fill:#EDC64A;" points="381.852,428.258 415.284,461.232 419.416,459.34 384.591,427.573 					"/>
				</g>
				<g>
					<polygon style="fill:#DDBBA2;" points="448.346,477.926 489.095,527.218 535.758,505.858 489.017,467.758 					"/>
					<polygon style="fill:#4DB4C7;" points="450.093,473.763 490.841,523.056 537.504,501.696 490.763,463.596 					"/>
					<polygon style="fill:#EDC64A;" points="462.299,470.712 504.737,516.695 509.933,514.316 465.599,469.887 					"/>
					<polygon style="fill:#EDC64A;" points="478.051,466.774 521.08,509.214 526.398,506.779 481.576,465.893 					"/>
				</g>
				<g>
					<polygon style="fill:#DDBBA2;" points="379.489,490.572 420.237,539.864 466.9,518.504 420.159,480.404 					"/>
					<polygon style="fill:#F25A6C;" points="381.235,486.409 421.983,535.701 468.646,514.341 421.906,476.242 					"/>
					<polygon style="fill:#EDC64A;" points="393.441,483.358 435.879,529.34 441.075,526.962 396.741,482.533 					"/>
					<polygon style="fill:#EDC64A;" points="409.193,479.42 452.222,521.86 457.54,519.425 412.718,478.538 					"/>
				</g>
			</g>
			<g style="clip-path:url(#SVGID_00000015313709899358857090000015222131154142181053_);">
				<ellipse style="fill:#DDBBA2;" cx="517.918" cy="473.32" rx="6.614" ry="3.212"/>
				<path style="fill:#FFFFFF;" d="M512.23,467.709v4.34c0,1.526,2.547,2.762,5.688,2.762s5.688-1.237,5.688-2.762v-4.34H512.23z"/>
				<ellipse style="fill:#FFFFFF;" cx="517.918" cy="467.709" rx="5.688" ry="2.762"/>
				<ellipse style="fill:#EA3847;" cx="517.918" cy="467.709" rx="4.536" ry="2.203"/>
			</g>
			<g style="clip-path:url(#SVGID_00000015313709899358857090000015222131154142181053_);">
				<ellipse style="fill:#DDBBA2;" cx="462.299" cy="461.511" rx="6.614" ry="3.212"/>
				<path style="fill:#FFFFFF;" d="M456.611,455.899v4.34c0,1.526,2.547,2.762,5.688,2.762s5.688-1.237,5.688-2.762v-4.34H456.611z"
					/>
				<ellipse style="fill:#FFFFFF;" cx="462.299" cy="455.899" rx="5.688" ry="2.762"/>
				<ellipse style="fill:#EDC64A;" cx="462.299" cy="455.899" rx="4.536" ry="2.203"/>
			</g>
		</g>
	</g>
</g>
</svg>
